<svg width="500" height="500" viewBox="0 0 500 500" fill="none" xmlns="http://www.w3.org/2000/svg">
<rect width="500" height="500" fill="#FE9800"/>
<path fill-rule="evenodd" clip-rule="evenodd" d="M157.832 390H343.168C368.984 390 390 369.043 390 343.168V157.832C390 131.957 369.043 111 343.168 111H157.832C131.957 111 111 131.957 111 157.832V343.168C111 369.043 131.957 390 157.832 390ZM313.021 311.087L284.512 269.056C307.928 262.909 321.099 244.176 321.158 219.707C321.158 218.009 320.982 216.136 320.631 214.204C317.353 195.12 303.069 179.549 284.629 173.753C276.96 171.353 268.823 170.065 260.335 170.065C244.178 170.065 229.075 174.748 216.489 183.061C194.478 197.345 179.902 222.224 179.902 250.44C179.902 278.773 194.478 303.594 216.489 317.936C220.997 320.805 225.797 323.322 230.773 325.254C239.905 328.825 249.915 330.874 260.335 330.874C275.848 330.874 290.249 326.542 302.484 318.873C306.23 316.648 309.743 314.073 313.021 311.087Z" fill="white"/>
</svg>
