<svg width="220" height="220" viewBox="0 0 220 220" fill="none" xmlns="http://www.w3.org/2000/svg">
<g id="Image">
<mask id="path-1-inside-1_14_29" fill="white">
<path d="M0 100C0 44.7715 44.7715 0 100 0H120C175.228 0 220 44.7715 220 100V220H0V100Z"/>
</mask>
<path d="M0 100C0 44.7715 44.7715 0 100 0H120C175.228 0 220 44.7715 220 100V220H0V100Z" fill="#F9F9F9"/>
<g id="Buildings">
<g id="Right">
<g id="Building">
<path d="M155 132H190C192.209 132 194 133.791 194 136V220H155V132Z" fill="#F2F2F2"/>
<path d="M155 132H190C192.209 132 194 133.791 194 136V220H155V132Z" fill="url(#paint0_linear_14_29)" fillOpacity="0.05"/>
<path d="M155 132H190C192.209 132 194 133.791 194 136V220H155V132Z" fill="url(#paint1_linear_14_29)" fillOpacity="0.05"/>
</g>
<g id="Roof">
<path d="M130 124H182C184.209 124 186 125.791 186 128V132H130V124Z" fill="#F2F2F2"/>
<path d="M130 124H182C184.209 124 186 125.791 186 128V132H130V124Z" fill="url(#paint2_linear_14_29)" fillOpacity="0.05"/>
</g>
<g id="Roof_2">
<path d="M138 116H174C176.209 116 178 117.791 178 120V124H138V116Z" fill="#F2F2F2"/>
<path d="M138 116H174C176.209 116 178 117.791 178 120V124H138V116Z" fill="url(#paint3_linear_14_29)" fillOpacity="0.05"/>
</g>
<g id="Windows">
<path d="M154 142C154 140.895 154.895 140 156 140H184C185.105 140 186 140.895 186 142V146C186 147.105 185.105 148 184 148H156C154.895 148 154 147.105 154 146V142Z" fill="black" fillOpacity="0.05"/>
<path d="M154 156C154 154.895 154.895 154 156 154H184C185.105 154 186 154.895 186 156V160C186 161.105 185.105 162 184 162H156C154.895 162 154 161.105 154 160V156Z" fill="black" fillOpacity="0.05"/>
<path d="M154 170C154 168.895 154.895 168 156 168H184C185.105 168 186 168.895 186 170V174C186 175.105 185.105 176 184 176H156C154.895 176 154 175.105 154 174V170Z" fill="black" fillOpacity="0.05"/>
<path d="M154 184C154 182.895 154.895 182 156 182H184C185.105 182 186 182.895 186 184V188C186 189.105 185.105 190 184 190H156C154.895 190 154 189.105 154 188V184Z" fill="black" fillOpacity="0.05"/>
<path d="M154 198C154 196.895 154.895 196 156 196H184C185.105 196 186 196.895 186 198V202C186 203.105 185.105 204 184 204H156C154.895 204 154 203.105 154 202V198Z" fill="black" fillOpacity="0.05"/>
<path d="M154 212C154 210.895 154.895 210 156 210H184C185.105 210 186 210.895 186 212V220H154V212Z" fill="black" fillOpacity="0.05"/>
</g>
<g id="Radio">
<g id="Vector 2">
<path d="M162 116L162 100" stroke="#F2F2F2" strokeWidth="2"/>
<path d="M162 116L162 100" stroke="url(#paint4_linear_14_29)" stroke-opacity="0.05" strokeWidth="2"/>
</g>
<circle id="Ellipse 1" cx="162" cy="100" r="2" fill="#F0F0F0"/>
</g>
</g>
<g id="Left">
<g id="Building_2">
<path d="M26 168C26 165.791 27.7909 164 30 164H65V220H26V168Z" fill="#F2F2F2"/>
<path d="M26 168C26 165.791 27.7909 164 30 164H65V220H26V168Z" fill="url(#paint5_linear_14_29)" fillOpacity="0.05"/>
<path d="M26 168C26 165.791 27.7909 164 30 164H65V220H26V168Z" fill="url(#paint6_linear_14_29)" fillOpacity="0.05"/>
</g>
<g id="Windows_2">
<path d="M36 176C36 174.895 36.8954 174 38 174H42C43.1046 174 44 174.895 44 176V180C44 181.105 43.1046 182 42 182H38C36.8954 182 36 181.105 36 180V176Z" fill="black" fillOpacity="0.05"/>
<path d="M36 190C36 188.895 36.8954 188 38 188H42C43.1046 188 44 188.895 44 190V194C44 195.105 43.1046 196 42 196H38C36.8954 196 36 195.105 36 194V190Z" fill="black" fillOpacity="0.05"/>
<path d="M36 204C36 202.895 36.8954 202 38 202H42C43.1046 202 44 202.895 44 204V208C44 209.105 43.1046 210 42 210H38C36.8954 210 36 209.105 36 208V204Z" fill="black" fillOpacity="0.05"/>
<path d="M51 176C51 174.895 51.8954 174 53 174H57C58.1046 174 59 174.895 59 176V180C59 181.105 58.1046 182 57 182H53C51.8954 182 51 181.105 51 180V176Z" fill="black" fillOpacity="0.05"/>
<path d="M51 190C51 188.895 51.8954 188 53 188H57C58.1046 188 59 188.895 59 190V194C59 195.105 58.1046 196 57 196H53C51.8954 196 51 195.105 51 194V190Z" fill="black" fillOpacity="0.05"/>
<path d="M51 204C51 202.895 51.8954 202 53 202H57C58.1046 202 59 202.895 59 204V208C59 209.105 58.1046 210 57 210H53C51.8954 210 51 209.105 51 208V204Z" fill="black" fillOpacity="0.05"/>
</g>
<g id="Roof_3">
<path d="M34 160C34 157.791 35.7909 156 38 156H46C48.2091 156 50 157.791 50 160V164H34V160Z" fill="#F2F2F2"/>
<path d="M34 160C34 157.791 35.7909 156 38 156H46C48.2091 156 50 157.791 50 160V164H34V160Z" fill="url(#paint7_linear_14_29)" fillOpacity="0.05"/>
</g>
</g>
<g id="Center">
<g id="Building_3">
<path d="M65 96C65 93.7909 66.7909 92 69 92H151C153.209 92 155 93.7909 155 96V220H65V96Z" fill="#F2F2F2"/>
<path d="M65 96C65 93.7909 66.7909 92 69 92H151C153.209 92 155 93.7909 155 96V220H65V96Z" fill="url(#paint8_linear_14_29)" fillOpacity="0.05"/>
</g>
<g id="Roof_4">
<path d="M82 88C82 85.7909 83.7909 84 86 84H134C136.209 84 138 85.7909 138 88V92H82V88Z" fill="#F2F2F2"/>
<path d="M82 88C82 85.7909 83.7909 84 86 84H134C136.209 84 138 85.7909 138 88V92H82V88Z" fill="url(#paint9_linear_14_29)" fillOpacity="0.05"/>
</g>
<g id="Windows_3">
<path d="M77 106C77 104.895 77.8954 104 79 104H83C84.1046 104 85 104.895 85 106V110C85 111.105 84.1046 112 83 112H79C77.8954 112 77 111.105 77 110V106Z" fill="black" fillOpacity="0.05"/>
<path d="M77 120C77 118.895 77.8954 118 79 118H83C84.1046 118 85 118.895 85 120V124C85 125.105 84.1046 126 83 126H79C77.8954 126 77 125.105 77 124V120Z" fill="black" fillOpacity="0.05"/>
<path d="M77 134C77 132.895 77.8954 132 79 132H83C84.1046 132 85 132.895 85 134V138C85 139.105 84.1046 140 83 140H79C77.8954 140 77 139.105 77 138V134Z" fill="black" fillOpacity="0.05"/>
<path d="M77 148C77 146.895 77.8954 146 79 146H83C84.1046 146 85 146.895 85 148V152C85 153.105 84.1046 154 83 154H79C77.8954 154 77 153.105 77 152V148Z" fill="black" fillOpacity="0.05"/>
<path d="M77 162C77 160.895 77.8954 160 79 160H83C84.1046 160 85 160.895 85 162V166C85 167.105 84.1046 168 83 168H79C77.8954 168 77 167.105 77 166V162Z" fill="black" fillOpacity="0.05"/>
<path d="M77 176C77 174.895 77.8954 174 79 174H83C84.1046 174 85 174.895 85 176V180C85 181.105 84.1046 182 83 182H79C77.8954 182 77 181.105 77 180V176Z" fill="black" fillOpacity="0.05"/>
<path d="M92 106C92 104.895 92.8954 104 94 104H98C99.1046 104 100 104.895 100 106V110C100 111.105 99.1046 112 98 112H94C92.8954 112 92 111.105 92 110V106Z" fill="black" fillOpacity="0.05"/>
<path d="M92 120C92 118.895 92.8954 118 94 118H98C99.1046 118 100 118.895 100 120V124C100 125.105 99.1046 126 98 126H94C92.8954 126 92 125.105 92 124V120Z" fill="black" fillOpacity="0.05"/>
<path d="M92 134C92 132.895 92.8954 132 94 132H98C99.1046 132 100 132.895 100 134V138C100 139.105 99.1046 140 98 140H94C92.8954 140 92 139.105 92 138V134Z" fill="black" fillOpacity="0.05"/>
<path d="M92 148C92 146.895 92.8954 146 94 146H98C99.1046 146 100 146.895 100 148V152C100 153.105 99.1046 154 98 154H94C92.8954 154 92 153.105 92 152V148Z" fill="black" fillOpacity="0.05"/>
<path d="M92 162C92 160.895 92.8954 160 94 160H98C99.1046 160 100 160.895 100 162V166C100 167.105 99.1046 168 98 168H94C92.8954 168 92 167.105 92 166V162Z" fill="black" fillOpacity="0.05"/>
<path d="M92 176C92 174.895 92.8954 174 94 174H98C99.1046 174 100 174.895 100 176V180C100 181.105 99.1046 182 98 182H94C92.8954 182 92 181.105 92 180V176Z" fill="black" fillOpacity="0.05"/>
<path d="M106 106C106 104.895 106.895 104 108 104H112C113.105 104 114 104.895 114 106V110C114 111.105 113.105 112 112 112H108C106.895 112 106 111.105 106 110V106Z" fill="black" fillOpacity="0.05"/>
<path d="M106 120C106 118.895 106.895 118 108 118H112C113.105 118 114 118.895 114 120V124C114 125.105 113.105 126 112 126H108C106.895 126 106 125.105 106 124V120Z" fill="black" fillOpacity="0.05"/>
<path d="M106 134C106 132.895 106.895 132 108 132H112C113.105 132 114 132.895 114 134V138C114 139.105 113.105 140 112 140H108C106.895 140 106 139.105 106 138V134Z" fill="black" fillOpacity="0.05"/>
<path d="M106 148C106 146.895 106.895 146 108 146H112C113.105 146 114 146.895 114 148V152C114 153.105 113.105 154 112 154H108C106.895 154 106 153.105 106 152V148Z" fill="black" fillOpacity="0.05"/>
<path d="M106 162C106 160.895 106.895 160 108 160H112C113.105 160 114 160.895 114 162V166C114 167.105 113.105 168 112 168H108C106.895 168 106 167.105 106 166V162Z" fill="black" fillOpacity="0.05"/>
<path d="M106 176C106 174.895 106.895 174 108 174H112C113.105 174 114 174.895 114 176V180C114 181.105 113.105 182 112 182H108C106.895 182 106 181.105 106 180V176Z" fill="black" fillOpacity="0.05"/>
<path d="M121 106C121 104.895 121.895 104 123 104H127C128.105 104 129 104.895 129 106V110C129 111.105 128.105 112 127 112H123C121.895 112 121 111.105 121 110V106Z" fill="black" fillOpacity="0.05"/>
<path d="M121 120C121 118.895 121.895 118 123 118H127C128.105 118 129 118.895 129 120V124C129 125.105 128.105 126 127 126H123C121.895 126 121 125.105 121 124V120Z" fill="black" fillOpacity="0.05"/>
<path d="M121 134C121 132.895 121.895 132 123 132H127C128.105 132 129 132.895 129 134V138C129 139.105 128.105 140 127 140H123C121.895 140 121 139.105 121 138V134Z" fill="black" fillOpacity="0.05"/>
<path d="M121 148C121 146.895 121.895 146 123 146H127C128.105 146 129 146.895 129 148V152C129 153.105 128.105 154 127 154H123C121.895 154 121 153.105 121 152V148Z" fill="black" fillOpacity="0.05"/>
<path d="M121 162C121 160.895 121.895 160 123 160H127C128.105 160 129 160.895 129 162V166C129 167.105 128.105 168 127 168H123C121.895 168 121 167.105 121 166V162Z" fill="black" fillOpacity="0.05"/>
<path d="M121 176C121 174.895 121.895 174 123 174H127C128.105 174 129 174.895 129 176V180C129 181.105 128.105 182 127 182H123C121.895 182 121 181.105 121 180V176Z" fill="black" fillOpacity="0.05"/>
<path d="M135 106C135 104.895 135.895 104 137 104H141C142.105 104 143 104.895 143 106V110C143 111.105 142.105 112 141 112H137C135.895 112 135 111.105 135 110V106Z" fill="black" fillOpacity="0.05"/>
<path d="M135 120C135 118.895 135.895 118 137 118H141C142.105 118 143 118.895 143 120V124C143 125.105 142.105 126 141 126H137C135.895 126 135 125.105 135 124V120Z" fill="black" fillOpacity="0.05"/>
<path d="M135 134C135 132.895 135.895 132 137 132H141C142.105 132 143 132.895 143 134V138C143 139.105 142.105 140 141 140H137C135.895 140 135 139.105 135 138V134Z" fill="black" fillOpacity="0.05"/>
<path d="M135 148C135 146.895 135.895 146 137 146H141C142.105 146 143 146.895 143 148V152C143 153.105 142.105 154 141 154H137C135.895 154 135 153.105 135 152V148Z" fill="black" fillOpacity="0.05"/>
<path d="M135 162C135 160.895 135.895 160 137 160H141C142.105 160 143 160.895 143 162V166C143 167.105 142.105 168 141 168H137C135.895 168 135 167.105 135 166V162Z" fill="black" fillOpacity="0.05"/>
<path d="M135 176C135 174.895 135.895 174 137 174H141C142.105 174 143 174.895 143 176V180C143 181.105 142.105 182 141 182H137C135.895 182 135 181.105 135 180V176Z" fill="black" fillOpacity="0.05"/>
</g>
<g id="Door">
<path id="Rectangle 33" d="M90 202C90 199.791 91.7909 198 94 198H126C128.209 198 130 199.791 130 202V220H90V202Z" fill="black" fillOpacity="0.05"/>
<path id="Split" d="M110 198V220" stroke="#F3EEE8" strokeWidth="2"/>
</g>
</g>
</g>
<path id="Mark" d="M109.95 54.759C109.054 54.759 108.347 54.4451 107.83 53.8172C107.312 53.1893 107.054 52.3583 107.054 51.3241C107.054 50.3269 107.157 49.4035 107.364 48.554C107.606 47.6676 107.968 46.7996 108.45 45.9501C108.967 45.0637 109.64 44.1773 110.467 43.2909C111.019 42.663 111.45 42.109 111.76 41.6288C112.105 41.1487 112.346 40.7054 112.484 40.2992C112.622 39.856 112.691 39.4127 112.691 38.9695C112.691 38.12 112.398 37.4737 111.812 37.0305C111.226 36.5873 110.381 36.3657 109.278 36.3657C108.174 36.3657 107.14 36.4949 106.175 36.7535C105.209 37.012 104.278 37.3998 103.382 37.9169C102.348 38.5078 101.434 38.711 100.641 38.5263C99.848 38.3047 99.2274 37.8615 98.7792 37.1967C98.331 36.5319 98.0724 35.7562 98.0034 34.8698C97.969 33.9834 98.1931 33.1154 98.6758 32.2659C99.1929 31.4164 99.9859 30.7147 101.055 30.1607C102.468 29.422 103.968 28.8864 105.554 28.554C107.14 28.1847 108.623 28 110.002 28C112.381 28 114.467 28.4063 116.259 29.2188C118.087 30.0314 119.5 31.1764 120.5 32.6537C121.5 34.0942 122 35.7932 122 37.7507C122 38.8587 121.845 39.9114 121.535 40.9086C121.224 41.9058 120.724 42.8846 120.035 43.8449C119.345 44.7682 118.38 45.7101 117.139 46.6704C116.07 47.5199 115.242 48.277 114.656 48.9418C114.07 49.5697 113.639 50.1791 113.363 50.7701C113.122 51.361 112.932 52.0074 112.794 52.7091C112.657 53.3001 112.363 53.7987 111.915 54.205C111.467 54.5743 110.812 54.759 109.95 54.759ZM109.795 68C108.209 68 106.95 67.5014 106.02 66.5042C105.123 65.5069 104.675 64.1958 104.675 62.5706C104.675 60.9825 105.123 59.7082 106.02 58.7479C106.95 57.7507 108.209 57.2521 109.795 57.2521C111.381 57.2521 112.622 57.7507 113.518 58.7479C114.415 59.7082 114.863 60.9825 114.863 62.5706C114.863 64.1958 114.415 65.5069 113.518 66.5042C112.622 67.5014 111.381 68 109.795 68Z" fill="url(#paint10_linear_14_29)"/>
<path d="M0 0H220H0ZM220 221H0V219H220V221ZM0 220V0V220ZM220 0V220V0Z" fill="url(#paint11_linear_14_29)" mask="url(#path-1-inside-1_14_29)"/>
</g>
<defs>
<linearGradient id="paint0_linear_14_29" x1="174.71" y1="220" x2="174.71" y2="132" gradientUnits="userSpaceOnUse">
<stop stop-color="#FE9800"/>
<stop offset="1" stop-color="#FE9800" stop-opacity="0"/>
</linearGradient>
<linearGradient id="paint1_linear_14_29" x1="155" y1="176" x2="194" y2="176" gradientUnits="userSpaceOnUse">
<stop/>
<stop offset="1" stop-opacity="0"/>
</linearGradient>
<linearGradient id="paint2_linear_14_29" x1="158.301" y1="132" x2="158.301" y2="124" gradientUnits="userSpaceOnUse">
<stop/>
<stop offset="1" stop-opacity="0"/>
</linearGradient>
<linearGradient id="paint3_linear_14_29" x1="154.258" y1="124" x2="154.258" y2="116" gradientUnits="userSpaceOnUse">
<stop/>
<stop offset="1" stop-opacity="0"/>
</linearGradient>
<linearGradient id="paint4_linear_14_29" x1="162.406" y1="116" x2="162.406" y2="100" gradientUnits="userSpaceOnUse">
<stop/>
<stop offset="1" stop-opacity="0"/>
</linearGradient>
<linearGradient id="paint5_linear_14_29" x1="45.7097" y1="220" x2="45.7097" y2="164" gradientUnits="userSpaceOnUse">
<stop stop-color="#FE9800"/>
<stop offset="1" stop-color="#FE9800" stop-opacity="0"/>
</linearGradient>
<linearGradient id="paint6_linear_14_29" x1="65" y1="192" x2="45.5" y2="192" gradientUnits="userSpaceOnUse">
<stop/>
<stop offset="1" stop-opacity="0"/>
</linearGradient>
<linearGradient id="paint7_linear_14_29" x1="42.086" y1="164" x2="42.086" y2="156" gradientUnits="userSpaceOnUse">
<stop/>
<stop offset="1" stop-opacity="0"/>
</linearGradient>
<linearGradient id="paint8_linear_14_29" x1="110.484" y1="220" x2="110.484" y2="92" gradientUnits="userSpaceOnUse">
<stop stop-color="#FE9800"/>
<stop offset="1" stop-color="#FE9800" stop-opacity="0"/>
</linearGradient>
<linearGradient id="paint9_linear_14_29" x1="110.301" y1="92" x2="110.301" y2="84" gradientUnits="userSpaceOnUse">
<stop/>
<stop offset="1" stop-opacity="0"/>
</linearGradient>
<linearGradient id="paint10_linear_14_29" x1="110" y1="28" x2="110" y2="68" gradientUnits="userSpaceOnUse">
<stop stop-color="#FE9800"/>
<stop offset="1" stop-color="#E88D04"/>
</linearGradient>
<linearGradient id="paint11_linear_14_29" x1="220" y1="220" x2="2.563e-06" y2="220" gradientUnits="userSpaceOnUse">
<stop stop-color="#DADADA" stop-opacity="0"/>
<stop offset="0.5" stop-color="#DADADA"/>
<stop offset="1" stop-color="#DADADA" stop-opacity="0"/>
</linearGradient>
</defs>
</svg>
