<svg width="220" height="200" viewBox="0 0 220 200" fill="none" xmlns="http://www.w3.org/2000/svg">
<g id="Image">
<mask id="path-1-inside-1_81_503" fill="white">
<path d="M0 100C0 44.7715 44.7715 0 100 0H120C175.228 0 220 44.7715 220 100V200H0V100Z"/>
</mask>
<path d="M0 100C0 44.7715 44.7715 0 100 0H120C175.228 0 220 44.7715 220 100V200H0V100Z" fill="#F9F9F9"/>
<g id="Table">
<g id="Seat">
<g id="Building">
<path d="M180 128H176V200H180V128Z" fill="#F2F2F2"/>
<path d="M180 128H176V200H180V128Z" fill="url(#paint0_linear_81_503)" fillOpacity="0.05"/>
</g>
<g id="Building_2">
<path d="M156 172H152V200H156V172Z" fill="#F2F2F2"/>
<path d="M156 172H152V200H156V172Z" fill="url(#paint1_linear_81_503)" fillOpacity="0.05"/>
</g>
<g id="Roof">
<path d="M150 169C150 166.791 151.791 165 154 165H176C178.209 165 180 166.791 180 169V173H150V169Z" fill="#F2F2F2"/>
<path d="M150 169C150 166.791 151.791 165 154 165H176C178.209 165 180 166.791 180 169V173H150V169Z" fill="url(#paint2_linear_81_503)" fillOpacity="0.05"/>
</g>
</g>
<g id="Seat_2">
<g id="Building_3">
<path d="M40 128H44V200H40V128Z" fill="#F2F2F2"/>
<path d="M40 128H44V200H40V128Z" fill="url(#paint3_linear_81_503)" fillOpacity="0.05"/>
</g>
<g id="Building_4">
<path d="M64 172H68V200H64V172Z" fill="#F2F2F2"/>
<path d="M64 172H68V200H64V172Z" fill="url(#paint4_linear_81_503)" fillOpacity="0.05"/>
</g>
<g id="Roof_2">
<path d="M70 169C70 166.791 68.2091 165 66 165H44C41.7909 165 40 166.791 40 169V173H70V169Z" fill="#F2F2F2"/>
<path d="M70 169C70 166.791 68.2091 165 66 165H44C41.7909 165 40 166.791 40 169V173H70V169Z" fill="url(#paint5_linear_81_503)" fillOpacity="0.05"/>
</g>
</g>
<g id="Table_2">
<g id="Building_5">
<path d="M86 160H92L84 200H78L86 160Z" fill="#F2F2F2"/>
<path d="M86 160H92L84 200H78L86 160Z" fill="url(#paint6_linear_81_503)" fillOpacity="0.05"/>
</g>
<g id="Building_6">
<path d="M134 160H128L136 200H142L134 160Z" fill="#F2F2F2"/>
<path d="M134 160H128L136 200H142L134 160Z" fill="url(#paint7_linear_81_503)" fillOpacity="0.05"/>
</g>
<g id="Roof_3">
<path d="M79.7785 155.765C79.9029 153.651 81.6537 152 83.7716 152H136.228C138.346 152 140.097 153.651 140.221 155.765L141.897 184.25C141.963 185.363 141.549 186.451 140.76 187.24L140 188C138.895 189.105 137.105 189.105 136 188V188C134.895 186.895 133.105 186.895 132 188V188C130.895 189.105 129.105 189.105 128 188V188C126.895 186.895 125.105 186.895 124 188V188C122.895 189.105 121.105 189.105 120 188V188C118.895 186.895 117.105 186.895 116 188V188C114.895 189.105 113.105 189.105 112 188V188C110.895 186.895 109.105 186.895 108 188V188C106.895 189.105 105.105 189.105 104 188V188C102.895 186.895 101.105 186.895 100 188V188C98.8954 189.105 97.1046 189.105 96 188V188C94.8954 186.895 93.1046 186.895 92 188V188C90.8954 189.105 89.1046 189.105 88 188V188C86.8954 186.895 85.1046 186.895 84 188V188C82.8954 189.105 81.1046 189.105 80 188L79.2396 187.24C78.4511 186.451 78.0375 185.363 78.1029 184.25L79.7785 155.765Z" fill="#F2F2F2"/>
<path d="M79.7785 155.765C79.9029 153.651 81.6537 152 83.7716 152H136.228C138.346 152 140.097 153.651 140.221 155.765L141.897 184.25C141.963 185.363 141.549 186.451 140.76 187.24L140 188C138.895 189.105 137.105 189.105 136 188V188C134.895 186.895 133.105 186.895 132 188V188C130.895 189.105 129.105 189.105 128 188V188C126.895 186.895 125.105 186.895 124 188V188C122.895 189.105 121.105 189.105 120 188V188C118.895 186.895 117.105 186.895 116 188V188C114.895 189.105 113.105 189.105 112 188V188C110.895 186.895 109.105 186.895 108 188V188C106.895 189.105 105.105 189.105 104 188V188C102.895 186.895 101.105 186.895 100 188V188C98.8954 189.105 97.1046 189.105 96 188V188C94.8954 186.895 93.1046 186.895 92 188V188C90.8954 189.105 89.1046 189.105 88 188V188C86.8954 186.895 85.1046 186.895 84 188V188C82.8954 189.105 81.1046 189.105 80 188L79.2396 187.24C78.4511 186.451 78.0375 185.363 78.1029 184.25L79.7785 155.765Z" fill="url(#paint8_linear_81_503)" fillOpacity="0.05"/>
</g>
</g>
<path id="Mark" d="M109.95 102.759C109.054 102.759 108.347 102.445 107.83 101.817C107.312 101.189 107.054 100.358 107.054 99.3241C107.054 98.3269 107.157 97.4035 107.364 96.554C107.606 95.6676 107.968 94.7996 108.45 93.9501C108.967 93.0637 109.64 92.1773 110.467 91.2909C111.019 90.663 111.45 90.109 111.76 89.6288C112.105 89.1487 112.346 88.7054 112.484 88.2992C112.622 87.856 112.691 87.4127 112.691 86.9695C112.691 86.12 112.398 85.4737 111.812 85.0305C111.226 84.5873 110.381 84.3657 109.278 84.3657C108.174 84.3657 107.14 84.4949 106.175 84.7535C105.209 85.012 104.278 85.3998 103.382 85.9169C102.348 86.5078 101.434 86.711 100.641 86.5263C99.848 86.3047 99.2274 85.8615 98.7792 85.1967C98.331 84.5319 98.0724 83.7562 98.0034 82.8698C97.969 81.9834 98.1931 81.1154 98.6758 80.2659C99.1929 79.4164 99.9859 78.7147 101.055 78.1607C102.468 77.422 103.968 76.8864 105.554 76.554C107.14 76.1847 108.623 76 110.002 76C112.381 76 114.467 76.4063 116.259 77.2188C118.087 78.0314 119.5 79.1764 120.5 80.6537C121.5 82.0942 122 83.7932 122 85.7507C122 86.8587 121.845 87.9114 121.535 88.9086C121.224 89.9058 120.724 90.8846 120.035 91.8449C119.345 92.7682 118.38 93.7101 117.139 94.6704C116.07 95.5199 115.242 96.277 114.656 96.9418C114.07 97.5697 113.639 98.1791 113.363 98.7701C113.122 99.361 112.932 100.007 112.794 100.709C112.657 101.3 112.363 101.799 111.915 102.205C111.467 102.574 110.812 102.759 109.95 102.759ZM109.795 116C108.209 116 106.95 115.501 106.02 114.504C105.123 113.507 104.675 112.196 104.675 110.571C104.675 108.982 105.123 107.708 106.02 106.748C106.95 105.751 108.209 105.252 109.795 105.252C111.381 105.252 112.622 105.751 113.518 106.748C114.415 107.708 114.863 108.982 114.863 110.571C114.863 112.196 114.415 113.507 113.518 114.504C112.622 115.501 111.381 116 109.795 116Z" fill="url(#paint9_linear_81_503)"/>
<path id="Bottle" opacity="0.1" d="M106.069 128.566C106.034 128.267 106.266 128 106.566 128H113.434C113.734 128 113.966 128.267 113.931 128.566C113.347 133.523 113.599 135.645 114.686 137.364C115.889 139.266 117 141.264 117 143.515V147C117 149.761 114.761 152 112 152V152H108V152C105.239 152 103 149.761 103 147V143.515C103 141.264 104.111 139.266 105.314 137.364C106.401 135.645 106.653 133.523 106.069 128.566Z" fill="#020202"/>
</g>
<path d="M0 0H220H0ZM220 201H0V199H220V201ZM0 200V0V200ZM220 0V200V0Z" fill="url(#paint10_linear_81_503)" mask="url(#path-1-inside-1_81_503)"/>
</g>
<defs>
<linearGradient id="paint0_linear_81_503" x1="183.312" y1="200" x2="183.312" y2="128" gradientUnits="userSpaceOnUse">
<stop stop-color="#FE9800"/>
<stop offset="1" stop-color="#FE9800" stop-opacity="0"/>
</linearGradient>
<linearGradient id="paint1_linear_81_503" x1="159.312" y1="200" x2="159.312" y2="172" gradientUnits="userSpaceOnUse">
<stop stop-color="#FE9800"/>
<stop offset="1" stop-color="#FE9800" stop-opacity="0"/>
</linearGradient>
<linearGradient id="paint2_linear_81_503" x1="165.161" y1="173" x2="165.161" y2="165" gradientUnits="userSpaceOnUse">
<stop/>
<stop offset="1" stop-opacity="0"/>
</linearGradient>
<linearGradient id="paint3_linear_81_503" x1="36.6882" y1="200" x2="36.6882" y2="128" gradientUnits="userSpaceOnUse">
<stop stop-color="#FE9800"/>
<stop offset="1" stop-color="#FE9800" stop-opacity="0"/>
</linearGradient>
<linearGradient id="paint4_linear_81_503" x1="60.6882" y1="200" x2="60.6882" y2="172" gradientUnits="userSpaceOnUse">
<stop stop-color="#FE9800"/>
<stop offset="1" stop-color="#FE9800" stop-opacity="0"/>
</linearGradient>
<linearGradient id="paint5_linear_81_503" x1="54.8387" y1="173" x2="54.8387" y2="165" gradientUnits="userSpaceOnUse">
<stop/>
<stop offset="1" stop-opacity="0"/>
</linearGradient>
<linearGradient id="paint6_linear_81_503" x1="73.0323" y1="200" x2="73.0323" y2="160" gradientUnits="userSpaceOnUse">
<stop stop-color="#FE9800"/>
<stop offset="1" stop-color="#FE9800" stop-opacity="0"/>
</linearGradient>
<linearGradient id="paint7_linear_81_503" x1="146.968" y1="200" x2="146.968" y2="160" gradientUnits="userSpaceOnUse">
<stop stop-color="#FE9800"/>
<stop offset="1" stop-color="#FE9800" stop-opacity="0"/>
</linearGradient>
<linearGradient id="paint8_linear_81_503" x1="110.319" y1="186" x2="110.319" y2="152" gradientUnits="userSpaceOnUse">
<stop/>
<stop offset="1" stop-opacity="0"/>
</linearGradient>
<linearGradient id="paint9_linear_81_503" x1="110" y1="76" x2="110" y2="116" gradientUnits="userSpaceOnUse">
<stop stop-color="#FE9800"/>
<stop offset="1" stop-color="#E88D04"/>
</linearGradient>
<linearGradient id="paint10_linear_81_503" x1="220" y1="200" x2="2.563e-06" y2="200" gradientUnits="userSpaceOnUse">
<stop stop-color="#DADADA" stop-opacity="0"/>
<stop offset="0.5" stop-color="#DADADA"/>
<stop offset="1" stop-color="#DADADA" stop-opacity="0"/>
</linearGradient>
</defs>
</svg>
