<svg width="120" height="120" viewBox="0 0 120 120" fill="none" xmlns="http://www.w3.org/2000/svg">
<rect width="120" height="120" rx="60" fill="#F6F6F6"/>
<rect x="0.5" y="0.5" width="119" height="119" rx="59.5" stroke="black" stroke-opacity="0.02"/>
<g opacity="0.1">
<path d="M58.8007 55.8174C58.8007 57.4434 57.4403 58.7995 55.8065 58.7995C54.3705 58.7995 53.1461 57.7503 52.8717 56.3919C52.8263 56.188 52.8007 55.9784 52.8007 55.7619C52.8007 54.1243 54.131 52.7995 55.7751 52.7995C56.6123 52.7995 57.3705 53.1516 57.9135 53.7132C58.4589 54.2552 58.8007 55.0022 58.8007 55.8174Z" fill="#020202"/>
<path fill-rule="evenodd" clip-rule="evenodd" d="M65.2248 48C69.2772 48 72 50.8344 72 55.0656V64.9224C72 65.0288 71.9888 65.1286 71.9777 65.2283C71.9698 65.2984 71.962 65.3685 71.958 65.4408C71.9554 65.4845 71.9542 65.5282 71.9529 65.5719C71.9513 65.6302 71.9496 65.6885 71.9448 65.7468C71.9424 65.7696 71.9379 65.7915 71.9334 65.8134C71.9289 65.8353 71.9244 65.8572 71.922 65.88C71.8824 66.2568 71.8212 66.6168 71.736 66.966C71.7159 67.0533 71.6926 67.1375 71.6691 67.2224L71.664 67.2408C71.568 67.5792 71.4552 67.902 71.3196 68.2104C71.2958 68.2622 71.2708 68.3128 71.2457 68.3633C71.229 68.397 71.2123 68.4307 71.196 68.4648C71.0496 68.7588 70.8912 69.0408 70.7076 69.3024C70.6736 69.3508 70.6375 69.3962 70.6013 69.4417C70.5773 69.4717 70.5534 69.5018 70.53 69.5328C70.3392 69.78 70.14 70.0164 69.9144 70.2312C69.8693 70.274 69.8207 70.3132 69.772 70.3524C69.7416 70.3769 69.7111 70.4014 69.6816 70.4268C69.45 70.626 69.2136 70.8168 68.9532 70.98C68.8964 71.0157 68.836 71.0457 68.7758 71.0755C68.7369 71.0948 68.6981 71.1141 68.6604 71.1348C68.3952 71.2812 68.1276 71.424 67.836 71.5344C67.7658 71.5611 67.6912 71.5803 67.6163 71.5997C67.5631 71.6134 67.5098 71.6272 67.458 71.6436C67.4321 71.6516 67.4061 71.6597 67.3802 71.6677C67.1198 71.7488 66.8601 71.8296 66.5796 71.8776C66.4171 71.9061 66.2446 71.917 66.0721 71.928C65.9974 71.9327 65.9227 71.9374 65.8488 71.9436C65.7693 71.9495 65.6914 71.9591 65.6134 71.9687C65.4865 71.9844 65.3593 72 65.2248 72H54.7656C54.3144 72 53.8836 71.9544 53.4672 71.886C53.4518 71.8836 53.4376 71.8813 53.4234 71.8789L53.4228 71.8788C51.7992 71.5992 50.4516 70.8156 49.5072 69.6336C49.5006 69.6336 49.4981 69.6292 49.4946 69.6233C49.4924 69.6195 49.4898 69.615 49.4856 69.6108C48.5364 68.4156 48 66.8088 48 64.9224V55.0656C48 50.8344 50.7252 48 54.7656 48H65.2248ZM54.7656 49.674C51.6732 49.674 49.6752 51.7944 49.6752 55.0656V64.9224C49.6752 65.8404 49.8456 66.66 50.1372 67.3692C50.1498 67.3542 50.4246 67.0193 50.7831 66.5825C51.4832 65.7292 52.5025 64.4872 52.5096 64.4808C53.34 63.5328 54.8988 62.1192 56.9448 62.9748C57.3931 63.1607 57.7917 63.4154 58.1585 63.6498C58.1942 63.6726 58.2297 63.6953 58.2648 63.7176C58.9524 64.1772 59.3568 64.3932 59.7768 64.3572C59.9508 64.3332 60.114 64.2816 60.2688 64.1856C60.8528 63.8256 62.3667 61.6804 62.8201 61.0381C62.8865 60.9439 62.9302 60.882 62.9448 60.8628C64.2528 59.1588 66.2688 58.7028 67.9488 59.7108C68.1744 59.8452 69.7908 60.9744 70.326 61.428V55.0656C70.326 51.7944 68.328 49.674 65.2248 49.674H54.7656Z" fill="#020202"/>
</g>
</svg>

