<svg width="52" height="52" viewBox="0 0 52 52" fill="none" xmlns="http://www.w3.org/2000/svg">
<g id="Table">
<rect x="9.875" y="10" width="32" height="32" rx="6" fill="white"/>
<path id="Seat" d="M18.375 6.5C18.375 3.46243 20.8374 1 23.875 1H27.875C30.9126 1 33.375 3.46243 33.375 6.5V10H18.375V6.5Z" fill="white" stroke="#020202"/>
<path id="Seat_2" d="M18.375 45.5C18.375 48.5376 20.8374 51 23.875 51H27.875C30.9126 51 33.375 48.5376 33.375 45.5V42H18.375V45.5Z" fill="white" stroke="#020202"/>
<path id="Seat_3" d="M6.375 33.5C3.33743 33.5 0.875 31.0376 0.875 28L0.875 24C0.875 20.9624 3.33743 18.5 6.375 18.5H9.875L9.875 33.5H6.375Z" fill="white" stroke="#020202"/>
<path id="Seat_4" d="M45.375 33.5C48.4126 33.5 50.875 31.0376 50.875 28V24C50.875 20.9624 48.4126 18.5 45.375 18.5H41.875V33.5H45.375Z" fill="white" stroke="#020202"/>
<rect x="9.875" y="10" width="32" height="32" rx="6" stroke="#020202"/>
</g>
</svg>
