<svg width="66" height="52" viewBox="0 0 66 52" fill="none" xmlns="http://www.w3.org/2000/svg">
<g id="Table">
<rect x="1.375" y="10" width="64" height="32" rx="6" fill="white"/>
<path id="Seat" d="M9.875 6.5C9.875 3.46243 12.3374 1 15.375 1H19.375C22.4126 1 24.875 3.46243 24.875 6.5V10H9.875V6.5Z" fill="white" stroke="#020202"/>
<path id="Seat_2" d="M9.875 45.5C9.875 48.5376 12.3374 51 15.375 51H19.375C22.4126 51 24.875 48.5376 24.875 45.5V42H9.875V45.5Z" fill="white" stroke="#020202"/>
<path id="Seat_3" d="M41.875 6.5C41.875 3.46243 44.3374 1 47.375 1H51.375C54.4126 1 56.875 3.46243 56.875 6.5V10H41.875V6.5Z" fill="white" stroke="#020202"/>
<path id="Seat_4" d="M41.875 45.5C41.875 48.5376 44.3374 51 47.375 51H51.375C54.4126 51 56.875 48.5376 56.875 45.5V42H41.875V45.5Z" fill="white" stroke="#020202"/>
<rect x="1.375" y="10" width="64" height="32" rx="6" stroke="#020202"/>
</g>
</svg>
