<svg width="69" height="68" viewBox="0 0 69 68" fill="none" xmlns="http://www.w3.org/2000/svg">
<g id="Table">
<rect x="10.125" y="10" width="48" height="48" rx="24" fill="white"/>
<path fill="white" id="Seat" d="M42.125 11.5V6.5C42.125 3.18629 39.4387 0.5 36.125 0.5H32.125C28.8113 0.5 26.125 3.18629 26.125 6.5V11.5" stroke="#020202"/>
<path fill="white" id="Seat_2" d="M42.125 56.5V61.5C42.125 64.8137 39.4387 67.5 36.125 67.5H32.125C28.8113 67.5 26.125 64.8137 26.125 61.5V56.5" stroke="#020202"/>
<path fill="white" id="Seat_3" d="M11.625 26H6.625C3.31129 26 0.625 28.6863 0.625 32L0.625 36C0.625 39.3137 3.31129 42 6.625 42H11.625" stroke="#020202"/>
<path fill="white" id="Seat_4" d="M56.625 26H61.625C64.9387 26 67.625 28.6863 67.625 32V36C67.625 39.3137 64.9387 42 61.625 42H56.625" stroke="#020202"/>
<rect x="10.125" y="10" width="48" height="48" rx="24" stroke="#020202"/>
</g>
</svg>
