<svg width="68" height="68" viewBox="0 0 68 68" fill="none" xmlns="http://www.w3.org/2000/svg">
<g id="Icon">
<path d="M10 16C10 12.6863 12.6863 10 16 10H52C55.3137 10 58 12.6863 58 16V52C58 55.3137 55.3137 58 52 58H16C12.6863 58 10 55.3137 10 52V16Z" fill="white"/>
<path d="M26 7C26 3.68629 28.6863 1 32 1H36C39.3137 1 42 3.68629 42 7V10H26V7Z" fill="white"/>
<path d="M26 61C26 64.3137 28.6863 67 32 67H36C39.3137 67 42 64.3137 42 61V58H26V61Z" fill="white"/>
<path d="M7 42C3.68629 42 1 39.3137 1 36V32C1 28.6863 3.68629 26 7 26H10V42H7Z" fill="white"/>
<path d="M61 42C64.3137 42 67 39.3137 67 36V32C67 28.6863 64.3137 26 61 26H58V42H61Z" fill="white"/>
<path d="M10 16C10 12.6863 12.6863 10 16 10H52C55.3137 10 58 12.6863 58 16V52C58 55.3137 55.3137 58 52 58H16C12.6863 58 10 55.3137 10 52V16Z" stroke="#020202" strokeWidth="1.5"/>
<path d="M26 7C26 3.68629 28.6863 1 32 1H36C39.3137 1 42 3.68629 42 7V10H26V7Z" stroke="#020202" strokeWidth="1.5"/>
<path d="M26 61C26 64.3137 28.6863 67 32 67H36C39.3137 67 42 64.3137 42 61V58H26V61Z" stroke="#020202" strokeWidth="1.5"/>
<path d="M7 42C3.68629 42 1 39.3137 1 36V32C1 28.6863 3.68629 26 7 26H10V42H7Z" stroke="#020202" strokeWidth="1.5"/>
<path d="M61 42C64.3137 42 67 39.3137 67 36V32C67 28.6863 64.3137 26 61 26H58V42H61Z" stroke="#020202" strokeWidth="1.5"/>
</g>
</svg>
