<svg width="66" height="52" viewBox="0 0 66 52" fill="none" xmlns="http://www.w3.org/2000/svg">
<g id="Table">
<rect x="0.875" y="10" width="64" height="32" rx="6" fill="white"/>
<path id="Seat" d="M5.375 6.5C5.375 3.46243 7.83743 1 10.875 1H14.875C17.9126 1 20.375 3.46243 20.375 6.5V10H5.375V6.5Z" fill="white" stroke="#020202"/>
<path id="Seat_2" d="M5.375 45.5C5.375 48.5376 7.83743 51 10.875 51H14.875C17.9126 51 20.375 48.5376 20.375 45.5V42H5.375V45.5Z" fill="white" stroke="#020202"/>
<path id="Seat_3" d="M45.375 6.5C45.375 3.46243 47.8374 1 50.875 1H54.875C57.9126 1 60.375 3.46243 60.375 6.5V10H45.375V6.5Z" fill="white" stroke="#020202"/>
<path id="Seat_4" d="M25.375 6.5C25.375 3.46243 27.8374 1 30.875 1H34.875C37.9126 1 40.375 3.46243 40.375 6.5V10H25.375V6.5Z" fill="white" stroke="#020202"/>
<path id="Seat_5" d="M45.375 45.5C45.375 48.5376 47.8374 51 50.875 51H54.875C57.9126 51 60.375 48.5376 60.375 45.5V42H45.375V45.5Z" fill="white" stroke="#020202"/>
<path id="Seat_6" d="M25.375 45.5C25.375 48.5376 27.8374 51 30.875 51H34.875C37.9126 51 40.375 48.5376 40.375 45.5V42H25.375V45.5Z" fill="white" stroke="#020202"/>
<rect x="0.875" y="10" width="64" height="32" rx="6" stroke="#020202"/>
</g>
</svg>
