<svg width="69" height="64" viewBox="0 0 69 64" fill="none" xmlns="http://www.w3.org/2000/svg">
<g id="Table">
<rect x="10.375" y="8" width="48" height="48" rx="24" fill="white"/>
<path fill="white" id="Seat" d="M11.875 24H6.875C3.56129 24 0.875 26.6863 0.875 30L0.875 34C0.875 37.3137 3.56129 40 6.875 40H11.875" stroke="#020202"/>
<path fill="white" id="Seat_2" d="M56.875 24H61.875C65.1887 24 67.875 26.6863 67.875 30V34C67.875 37.3137 65.1887 40 61.875 40H56.875" stroke="#020202"/>
<path fill="white" id="Seat_3" d="M16.1973 47.4856L13.6973 51.8157C12.0405 54.6854 13.0237 58.355 15.8935 60.0118L19.3576 62.0118C22.2273 63.6687 25.8969 62.6854 27.5537 59.8157L30.0537 55.4856" stroke="#020202"/>
<path fill="white" id="Seat_4" d="M38.6973 8.51444L41.1973 4.18431C42.8542 1.31456 46.5237 0.331305 49.3935 1.98816L52.8576 3.98816C55.7273 5.64501 56.7106 9.31456 55.0537 12.1843L52.5537 16.5144" stroke="#020202"/>
<path fill="white" id="Seat_5" d="M38.6973 55.4856L41.1973 59.8157C42.8542 62.6854 46.5237 63.6687 49.3935 62.0118L52.8576 60.0118C55.7273 58.355 56.7106 54.6854 55.0537 51.8157L52.5537 47.4856" stroke="#020202"/>
<path fill="white" id="Seat_6" d="M16.1973 16.5144L13.6973 12.1843C12.0405 9.31456 13.0237 5.64501 15.8935 3.98816L19.3576 1.98816C22.2273 0.331305 25.8969 1.31456 27.5537 4.18431L30.0537 8.51444" stroke="#020202"/>
<rect x="10.375" y="8" width="48" height="48" rx="24" stroke="#020202"/>
</g>
</svg>
