<svg width="68" height="68" viewBox="0 0 68 68" fill="none" xmlns="http://www.w3.org/2000/svg">
<g id="Table">
<rect x="9.625" y="10" width="48" height="48" rx="6" fill="white"/>
<path id="Seat" d="M14.125 6.5C14.125 3.46243 16.5874 1 19.625 1H23.625C26.6626 1 29.125 3.46243 29.125 6.5V10H14.125V6.5Z" fill="white" stroke="#020202"/>
<path id="Seat_2" d="M38.125 6.5C38.125 3.46243 40.5874 1 43.625 1H47.625C50.6626 1 53.125 3.46243 53.125 6.5V10H38.125V6.5Z" fill="white" stroke="#020202"/>
<path id="Seat_3" d="M14.125 61.5C14.125 64.5376 16.5874 67 19.625 67H23.625C26.6626 67 29.125 64.5376 29.125 61.5V58H14.125V61.5Z" fill="white" stroke="#020202"/>
<path id="Seat_4" d="M38.125 61.5C38.125 64.5376 40.5874 67 43.625 67H47.625C50.6626 67 53.125 64.5376 53.125 61.5V58H38.125V61.5Z" fill="white" stroke="#020202"/>
<path id="Seat_5" d="M6.125 41.5C3.08743 41.5 0.625 39.0376 0.625 36L0.625 32C0.625 28.9624 3.08743 26.5 6.125 26.5H9.625L9.625 41.5H6.125Z" fill="white" stroke="#020202"/>
<path id="Seat_6" d="M61.125 41.5C64.1626 41.5 66.625 39.0376 66.625 36V32C66.625 28.9624 64.1626 26.5 61.125 26.5H57.625V41.5H61.125Z" fill="white" stroke="#020202"/>
<rect x="9.625" y="10" width="48" height="48" rx="6" stroke="#020202"/>
</g>
</svg>
