<svg width="20" height="20" viewBox="0 0 20 20" fill="none" xmlns="http://www.w3.org/2000/svg">
<g id="Duplicate" opacity="0.35">
<path id="Icon" d="M14.5714 5.42857V12.2857C14.5714 13.5481 13.5481 14.5714 12.2857 14.5714H5.42857M14.5714 5.42857V5C14.5714 3.34315 13.2283 2 11.5714 2H5C3.34314 2 2 3.34315 2 5V11.5714C2 13.2283 3.34315 14.5714 5 14.5714H5.42857M14.5714 5.42857H15C16.6569 5.42857 18 6.77171 18 8.42857V15C18 16.6569 16.6569 18 15 18H8.42857C6.77172 18 5.42857 16.6569 5.42857 15V14.5714" stroke="#020202" strokeWidth="1.5"/>
</g>
</svg>
