<svg width="20" height="20" viewBox="0 0 20 20" fill="none" xmlns="http://www.w3.org/2000/svg">
<g id="Edit" opacity="0.35">
<path id="Icon" d="M18 11.1429V14.8C18 16.5673 16.5673 18 14.8 18H5C3.34315 18 2 16.6569 2 15V5C2 3.34315 3.34315 2 5 2H8.85714M12.9491 3.6182C12.9491 3.6182 12.9491 4.76244 14.0933 5.90667C15.2376 7.05091 16.3818 7.05091 16.3818 7.05091M7.72374 13.1917L10.1266 12.8484C10.4732 12.7989 10.7944 12.6383 11.042 12.3907L17.526 5.90667C18.158 5.27473 18.158 4.25014 17.526 3.6182L16.3818 2.47396C15.7499 1.84201 14.7253 1.84201 14.0933 2.47396L7.60931 8.95797C7.36174 9.20555 7.20114 9.52675 7.15162 9.87336L6.80835 12.2763C6.73207 12.8102 7.18976 13.2679 7.72374 13.1917Z" stroke="#020202" strokeWidth="1.5" strokeLinecap="round"/>
</g>
</svg>
