<svg width="20" height="18" viewBox="0 0 20 18" fill="none" xmlns="http://www.w3.org/2000/svg">
<path d="M9.99969 0.75C14.9424 0.75 19.0545 4.30667 19.9171 9C19.0554 13.6933 14.9424 17.25 9.99969 17.25C5.05702 17.25 0.944859 13.6933 0.0822754 9C0.943942 4.30667 5.05702 0.75 9.99969 0.75ZM9.99969 15.4167C11.8692 15.4163 13.6832 14.7813 15.1448 13.6156C16.6064 12.4499 17.629 10.8226 18.0453 9C17.6275 7.17886 16.6042 5.55334 15.1428 4.38919C13.6813 3.22504 11.8681 2.59115 9.99969 2.59115C8.13125 2.59115 6.31807 3.22504 4.85662 4.38919C3.39517 5.55334 2.37189 7.17886 1.95411 9C2.37036 10.8226 3.39298 12.4499 4.85457 13.6156C6.31617 14.7813 8.13018 15.4163 9.99969 15.4167ZM9.99969 13.125C8.90567 13.125 7.85646 12.6904 7.08288 11.9168C6.30929 11.1432 5.87469 10.094 5.87469 9C5.87469 7.90598 6.30929 6.85677 7.08288 6.08319C7.85646 5.3096 8.90567 4.875 9.99969 4.875C11.0937 4.875 12.1429 5.3096 12.9165 6.08319C13.6901 6.85677 14.1247 7.90598 14.1247 9C14.1247 10.094 13.6901 11.1432 12.9165 11.9168C12.1429 12.6904 11.0937 13.125 9.99969 13.125ZM9.99969 11.2917C10.6075 11.2917 11.1904 11.0502 11.6201 10.6205C12.0499 10.1907 12.2914 9.60779 12.2914 9C12.2914 8.39221 12.0499 7.80932 11.6201 7.37955C11.1904 6.94978 10.6075 6.70833 9.99969 6.70833C9.3919 6.70833 8.80901 6.94978 8.37924 7.37955C7.94947 7.80932 7.70802 8.39221 7.70802 9C7.70802 9.60779 7.94947 10.1907 8.37924 10.6205C8.80901 11.0502 9.3919 11.2917 9.99969 11.2917Z" fill="#343D70"/>
</svg>
