<svg width="22" height="20" viewBox="0 0 22 20" fill="none" xmlns="http://www.w3.org/2000/svg">
<path d="M17.3918 16.6889C15.7795 17.7115 13.9091 18.253 11.9999 18.25C7.05727 18.25 2.9451 14.6933 2.08252 10C2.47671 7.86482 3.55068 5.91432 5.14419 4.4395L2.27594 1.574L3.57302 0.276915L21.7221 18.4269L20.425 19.7231L17.3909 16.6889H17.3918ZM6.44035 5.7375C5.19461 6.87012 4.32681 8.35805 3.95435 10C4.24062 11.2526 4.81534 12.421 5.63277 13.4124C6.4502 14.4037 7.48776 15.1905 8.66286 15.7102C9.83796 16.2299 11.1181 16.4681 12.4015 16.4058C13.6849 16.3435 14.936 15.9825 16.0553 15.3515L14.1963 13.4925C13.4049 13.991 12.4676 14.2058 11.5382 14.1016C10.6087 13.9974 9.74222 13.5804 9.08088 12.9191C8.41953 12.2577 8.00256 11.3912 7.89837 10.4618C7.79417 9.53231 8.00894 8.59503 8.50744 7.80366L6.44035 5.7375ZM12.8378 12.134L9.86594 9.16216C9.70283 9.57736 9.66444 10.0311 9.75548 10.4678C9.84652 10.9045 10.063 11.3051 10.3785 11.6206C10.6939 11.936 11.0945 12.1525 11.5312 12.2435C11.9679 12.3346 12.4217 12.2962 12.8369 12.1331L12.8378 12.134ZM20.073 14.2093L18.7613 12.8985C19.374 12.0252 19.8103 11.0406 20.0455 10C19.7964 8.90891 19.328 7.87988 18.6688 6.97545C18.0096 6.07102 17.1734 5.31008 16.211 4.73888C15.2486 4.16769 14.18 3.79817 13.0704 3.65278C11.9607 3.50739 10.833 3.58918 9.75594 3.89316L8.30944 2.44666C9.45252 1.9975 10.6983 1.75 11.9999 1.75C16.9426 1.75 21.0548 5.30666 21.9174 10C21.6365 11.5269 21.0051 12.9678 20.073 14.2093ZM11.746 5.88233C12.3295 5.84627 12.914 5.93464 13.4607 6.14158C14.0074 6.34852 14.5039 6.6693 14.9173 7.08266C15.3306 7.49602 15.6514 7.99252 15.8584 8.53925C16.0653 9.08598 16.1537 9.67045 16.1176 10.2539L11.7451 5.88233H11.746Z" fill="#343D70" stroke="#656565" strokeWidth="0.000213333"/>
</svg>
