<svg width="26" height="26" viewBox="0 0 26 26" fill="none" xmlns="http://www.w3.org/2000/svg">
<path d="M15.5714 19L16.1018 19.5303L16.3214 19.3107V19H15.5714ZM21 11.75C21.4142 11.75 21.75 11.4142 21.75 11C21.75 10.5858 21.4142 10.25 21 10.25V11.75ZM21 15.75C21.4142 15.75 21.75 15.4142 21.75 15C21.75 14.5858 21.4142 14.25 21 14.25V15.75ZM9.89824 23.6125C9.60535 23.9054 9.60535 24.3803 9.89824 24.6732C10.1911 24.9661 10.666 24.9661 10.9589 24.6732L9.89824 23.6125ZM12.1429 13.3214C12.5571 13.3214 12.8929 12.9856 12.8929 12.5714C12.8929 12.1572 12.5571 11.8214 12.1429 11.8214V13.3214ZM4.42857 11.8214C4.01436 11.8214 3.67857 12.1572 3.67857 12.5714C3.67857 12.9856 4.01436 13.3214 4.42857 13.3214V11.8214ZM8.41001 6.92178C8.13011 6.61644 7.65569 6.59581 7.35035 6.87571C7.04501 7.1556 7.02438 7.63003 7.30428 7.93536L8.41001 6.92178ZM9.26715 7.93537C9.54705 7.63003 9.52642 7.1556 9.22108 6.87571C8.91574 6.59581 8.44131 6.61644 8.16142 6.92178L9.26715 7.93537ZM24.25 8.71429V23.2857H25.75V8.71429H24.25ZM1.75 17.2857V2.71429H0.25V17.2857H1.75ZM2.71429 1.75H13.8571V0.25H2.71429V1.75ZM23.2857 24.25H11.2857V25.75H23.2857V24.25ZM8.82143 19V23.2857H10.3214V19H8.82143ZM14.8214 2.71429V7H16.3214V2.71429H14.8214ZM2.71429 19.75H9.57143V18.25H2.71429V19.75ZM23.2857 6.25H15.5714V7.75H23.2857V6.25ZM15.5714 18.25H9.57143V19.75H15.5714V18.25ZM16.3214 11V7H14.8214V11H16.3214ZM15.5714 11.75H21V10.25H15.5714V11.75ZM16.3214 19V15H14.8214V19H16.3214ZM16.3214 15V11H14.8214V15H16.3214ZM15.5714 15.75H21V14.25H15.5714V15.75ZM10.9589 24.6732L16.1018 19.5303L15.0411 18.4697L9.89824 23.6125L10.9589 24.6732ZM11.2857 24.25C10.7532 24.25 10.3214 23.8183 10.3214 23.2857H8.82143C8.82143 24.6467 9.92473 25.75 11.2857 25.75V24.25ZM13.8571 1.75C14.3897 1.75 14.8214 2.18172 14.8214 2.71429H16.3214C16.3214 1.3533 15.2181 0.25 13.8571 0.25V1.75ZM0.25 17.2857C0.25 18.6467 1.3533 19.75 2.71429 19.75V18.25C2.18173 18.25 1.75 17.8183 1.75 17.2857H0.25ZM24.25 23.2857C24.25 23.8183 23.8183 24.25 23.2857 24.25V25.75C24.6467 25.75 25.75 24.6467 25.75 23.2857H24.25ZM25.75 8.71429C25.75 7.3533 24.6467 6.25 23.2857 6.25V7.75C23.8183 7.75 24.25 8.18173 24.25 8.71429H25.75ZM1.75 2.71429C1.75 2.18173 2.18173 1.75 2.71429 1.75V0.25C1.3533 0.25 0.25 1.3533 0.25 2.71429H1.75ZM6.03571 12.5714C6.03571 11.0167 7.12858 9.92119 8.28571 9.92119V8.42119C6.12914 8.42119 4.53571 10.3703 4.53571 12.5714H6.03571ZM8.28571 9.92119C9.44285 9.92119 10.5357 11.0167 10.5357 12.5714H12.0357C12.0357 10.3703 10.4423 8.42119 8.28571 8.42119V9.92119ZM11.2857 13.3214H12.1429V11.8214H11.2857V13.3214ZM5.28571 11.8214H4.42857V13.3214H5.28571V11.8214ZM5.28571 13.3214H11.2857V11.8214H5.28571V13.3214ZM9.03571 9.17119V7.8961H7.53571V9.17119H9.03571ZM8.83858 7.38931L8.41001 6.92178L7.30428 7.93536L7.73285 8.4029L8.83858 7.38931ZM8.83858 8.4029L9.26715 7.93537L8.16142 6.92178L7.73285 7.38931L8.83858 8.4029Z" fill="white"/>
</svg>
