<svg width="22" height="24" viewBox="0 0 22 24" fill="none" xmlns="http://www.w3.org/2000/svg">
<path d="M15.5455 3H19C20.1046 3 21 3.89543 21 5V21C21 22.1046 20.1046 23 19 23H3C1.89543 23 1 22.1046 1 21V5C1 3.89543 1.89543 3 3 3H6.45455M15.5455 3V3C15.5455 1.89543 14.65 1 13.5455 1H8.45455C7.34998 1 6.45455 1.89543 6.45455 3V3M15.5455 3V3C15.5455 4.10457 14.65 5 13.5455 5H8.45454C7.34998 5 6.45455 4.10457 6.45455 3V3M6 10H16M6 14H16" stroke="white" strokeWidth="1.5" strokeLinecap="round" strokeLinejoin="round"/>
</svg>
