<svg width="24" height="24" viewBox="0 0 24 24" fill="none" xmlns="http://www.w3.org/2000/svg">
<path d="M15.6667 23H8.33333M15.6667 23V8.33333C15.6667 7.32081 14.8459 6.5 13.8333 6.5H10.1667C9.15414 6.5 8.33333 7.32081 8.33333 8.33333V23M15.6667 23H21.1667C22.1792 23 23 22.1792 23 21.1667V2.83333C23 1.82081 22.1792 1 21.1667 1H17.5C16.4875 1 15.6667 1.82081 15.6667 2.83333V23ZM8.33333 23H2.83333C1.82081 23 1 22.1792 1 21.1667V13.8333C1 12.8208 1.82081 12 2.83333 12H6.5C7.51252 12 8.33333 12.8208 8.33333 13.8333V23Z" stroke="white" strokeWidth="1.5" strokeLinecap="round"/>
</svg>
