<svg width="28" height="24" viewBox="0 0 28 24" fill="none" xmlns="http://www.w3.org/2000/svg">
<path d="M17.2 1.07311C17.7004 0.896233 18.2389 0.799988 18.7999 0.799988C21.4509 0.799988 23.5999 2.94902 23.5999 5.59999C23.5999 8.25096 21.4509 10.4 18.7999 10.4C18.2389 10.4 17.7004 10.3037 17.2 10.1269M10.8 23.2H24.1333C25.606 23.2 26.7999 22.0061 26.7999 20.5333C26.7999 17.5878 24.4121 15.2 21.4666 15.2H20.4M14 5.59999C14 8.25096 11.8509 10.4 9.19995 10.4C6.54898 10.4 4.39995 8.25096 4.39995 5.59999C4.39995 2.94902 6.54898 0.799988 9.19995 0.799988C11.8509 0.799988 14 2.94902 14 5.59999ZM3.86662 23.2H14.5333C16.006 23.2 17.2 22.0061 17.2 20.5333C17.2 17.5878 14.8121 15.2 11.8666 15.2H6.53328C3.58777 15.2 1.19995 17.5878 1.19995 20.5333C1.19995 22.0061 2.39386 23.2 3.86662 23.2Z" stroke="white" strokeWidth="1.5" strokeLinecap="round"/>
</svg>
