<svg width="220" height="220" viewBox="0 0 220 220" fill="none" xmlns="http://www.w3.org/2000/svg">
<path d="M0 100C0 44.7715 44.7715 0 100 0H120C175.228 0 220 44.7715 220 100V220H0V100Z" fill="#F9F9F9"/>
<path d="M109.95 54.759C109.054 54.759 108.347 54.4451 107.83 53.8172C107.312 53.1893 107.054 52.3583 107.054 51.3241C107.054 50.3269 107.157 49.4035 107.364 48.554C107.606 47.6676 107.968 46.7996 108.45 45.9501C108.967 45.0637 109.64 44.1773 110.467 43.2909C111.019 42.663 111.45 42.109 111.76 41.6288C112.105 41.1487 112.346 40.7054 112.484 40.2992C112.622 39.856 112.691 39.4127 112.691 38.9695C112.691 38.12 112.398 37.4737 111.812 37.0305C111.226 36.5873 110.381 36.3657 109.278 36.3657C108.174 36.3657 107.14 36.4949 106.175 36.7535C105.209 37.012 104.278 37.3998 103.382 37.9169C102.348 38.5078 101.434 38.711 100.641 38.5263C99.848 38.3047 99.2274 37.8615 98.7792 37.1967C98.331 36.5319 98.0724 35.7562 98.0034 34.8698C97.969 33.9834 98.1931 33.1154 98.6758 32.2659C99.1929 31.4164 99.9859 30.7147 101.055 30.1607C102.468 29.422 103.968 28.8864 105.554 28.554C107.14 28.1847 108.623 28 110.002 28C112.381 28 114.467 28.4063 116.259 29.2188C118.087 30.0314 119.5 31.1764 120.5 32.6537C121.5 34.0942 122 35.7932 122 37.7507C122 38.8587 121.845 39.9114 121.535 40.9086C121.224 41.9058 120.724 42.8846 120.035 43.8449C119.345 44.7682 118.38 45.7101 117.139 46.6704C116.07 47.5199 115.242 48.277 114.656 48.9418C114.07 49.5697 113.639 50.1791 113.363 50.7701C113.122 51.361 112.932 52.0074 112.794 52.7091C112.657 53.3001 112.363 53.7987 111.915 54.205C111.467 54.5743 110.812 54.759 109.95 54.759ZM109.795 68C108.209 68 106.95 67.5014 106.02 66.5042C105.123 65.5069 104.675 64.1958 104.675 62.5706C104.675 60.9825 105.123 59.7082 106.02 58.7479C106.95 57.7507 108.209 57.2521 109.795 57.2521C111.381 57.2521 112.622 57.7507 113.518 58.7479C114.415 59.7082 114.863 60.9825 114.863 62.5706C114.863 64.1958 114.415 65.5069 113.518 66.5042C112.622 67.5014 111.381 68 109.795 68Z" fill="url(#paint0_linear_311_3720)"/>
<rect x="59.25" y="85.25" width="101.5" height="101.5" rx="50.75" fill="#F2F2F2"/>
<rect x="59.25" y="85.25" width="101.5" height="101.5" rx="50.75" fill="url(#paint1_linear_311_3720)" fillOpacity="0.05"/>
<circle cx="110" cy="136" r="28" fill="#F2F2F2"/>
<circle cx="110" cy="136" r="28" fill="url(#paint2_linear_311_3720)" fillOpacity="0.05"/>
<circle cx="110" cy="136" r="28" fill="url(#paint3_linear_311_3720)" fillOpacity="0.05"/>
<circle cx="110" cy="136" r="31" stroke="black" stroke-opacity="0.05" strokeWidth="6"/>
<path d="M26 82.8C26 81.2536 27.2536 80 28.8 80V80C30.3464 80 31.6 81.2536 31.6 82.8V99.6C31.6 101.146 32.8536 102.4 34.4 102.4V102.4C35.9464 102.4 37.2 101.146 37.2 99.6V82.8C37.2 81.2536 38.4536 80 40 80V80V80C41.5464 80 42.8 81.2536 42.8 82.8V99.6C42.8 101.146 44.0536 102.4 45.6 102.4V102.4C47.1464 102.4 48.4 101.146 48.4 99.6V82.8C48.4 81.2536 49.6536 80 51.2 80V80C52.7464 80 54 81.2536 54 82.8V104.009C54 110.374 51.4714 116.479 46.9706 120.979L45.6 122.35L48.0626 183.607C48.2467 188.187 44.5836 192 40 192V192C35.4164 192 31.7533 188.187 31.9374 183.607L34.4 122.35L33.0294 120.979C28.5286 116.479 26 110.374 26 104.009V82.8Z" fill="#F2F2F2"/>
<path d="M26 82.8C26 81.2536 27.2536 80 28.8 80V80C30.3464 80 31.6 81.2536 31.6 82.8V99.6C31.6 101.146 32.8536 102.4 34.4 102.4V102.4C35.9464 102.4 37.2 101.146 37.2 99.6V82.8C37.2 81.2536 38.4536 80 40 80V80V80C41.5464 80 42.8 81.2536 42.8 82.8V99.6C42.8 101.146 44.0536 102.4 45.6 102.4V102.4C47.1464 102.4 48.4 101.146 48.4 99.6V82.8C48.4 81.2536 49.6536 80 51.2 80V80C52.7464 80 54 81.2536 54 82.8V104.009C54 110.374 51.4714 116.479 46.9706 120.979L45.6 122.35L48.0626 183.607C48.2467 188.187 44.5836 192 40 192V192C35.4164 192 31.7533 188.187 31.9374 183.607L34.4 122.35L33.0294 120.979C28.5286 116.479 26 110.374 26 104.009V82.8Z" fill="url(#paint4_linear_311_3720)" fillOpacity="0.05"/>
<path d="M26 82.8C26 81.2536 27.2536 80 28.8 80V80C30.3464 80 31.6 81.2536 31.6 82.8V99.6C31.6 101.146 32.8536 102.4 34.4 102.4V102.4C35.9464 102.4 37.2 101.146 37.2 99.6V82.8C37.2 81.2536 38.4536 80 40 80V80V80C41.5464 80 42.8 81.2536 42.8 82.8V99.6C42.8 101.146 44.0536 102.4 45.6 102.4V102.4C47.1464 102.4 48.4 101.146 48.4 99.6V82.8C48.4 81.2536 49.6536 80 51.2 80V80C52.7464 80 54 81.2536 54 82.8V104.009C54 110.374 51.4714 116.479 46.9706 120.979L45.6 122.35L48.0626 183.607C48.2467 188.187 44.5836 192 40 192V192C35.4164 192 31.7533 188.187 31.9374 183.607L34.4 122.35L33.0294 120.979C28.5286 116.479 26 110.374 26 104.009V82.8Z" fill="url(#paint5_linear_311_3720)" fillOpacity="0.05"/>
<path d="M185.775 192C181.134 192 177.462 188.074 177.77 183.444L180 150H171.6L176.19 92.622C176.76 85.4939 182.711 80 189.862 80V80C190.606 80 191.215 80.5934 191.233 81.3373L193.794 183.777C193.907 188.285 190.284 192 185.775 192V192Z" fill="#F2F2F2"/>
<path d="M185.775 192C181.134 192 177.462 188.074 177.77 183.444L180 150H171.6L176.19 92.622C176.76 85.4939 182.711 80 189.862 80V80C190.606 80 191.215 80.5934 191.233 81.3373L193.794 183.777C193.907 188.285 190.284 192 185.775 192V192Z" fill="url(#paint6_linear_311_3720)" fillOpacity="0.05"/>
<path d="M185.775 192C181.134 192 177.462 188.074 177.77 183.444L180 150H171.6L176.19 92.622C176.76 85.4939 182.711 80 189.862 80V80C190.606 80 191.215 80.5934 191.233 81.3373L193.794 183.777C193.907 188.285 190.284 192 185.775 192V192Z" fill="url(#paint7_linear_311_3720)" fillOpacity="0.05"/>
<defs>
<linearGradient id="paint0_linear_311_3720" x1="110" y1="28" x2="110" y2="68" gradientUnits="userSpaceOnUse">
<stop stop-color="#FE9800"/>
<stop offset="1" stop-color="#E88D04"/>
</linearGradient>
<linearGradient id="paint1_linear_311_3720" x1="110.546" y1="186.75" x2="110.546" y2="85.25" gradientUnits="userSpaceOnUse">
<stop stop-color="#FE9800"/>
<stop offset="1" stop-color="#FE9800" stop-opacity="0"/>
</linearGradient>
<linearGradient id="paint2_linear_311_3720" x1="110.301" y1="164" x2="110.301" y2="108" gradientUnits="userSpaceOnUse">
<stop stop-color="#FE9800"/>
<stop offset="1" stop-color="#FE9800" stop-opacity="0"/>
</linearGradient>
<linearGradient id="paint3_linear_311_3720" x1="82" y1="136" x2="138" y2="136" gradientUnits="userSpaceOnUse">
<stop/>
<stop offset="1" stop-opacity="0"/>
</linearGradient>
<linearGradient id="paint4_linear_311_3720" x1="40.1505" y1="192" x2="40.1505" y2="80" gradientUnits="userSpaceOnUse">
<stop stop-color="#FE9800"/>
<stop offset="1" stop-color="#FE9800" stop-opacity="0"/>
</linearGradient>
<linearGradient id="paint5_linear_311_3720" x1="26" y1="136" x2="54" y2="136" gradientUnits="userSpaceOnUse">
<stop/>
<stop offset="1" stop-opacity="0"/>
</linearGradient>
<linearGradient id="paint6_linear_311_3720" x1="182.92" y1="192" x2="182.92" y2="80" gradientUnits="userSpaceOnUse">
<stop stop-color="#FE9800"/>
<stop offset="1" stop-color="#FE9800" stop-opacity="0"/>
</linearGradient>
<linearGradient id="paint7_linear_311_3720" x1="171.6" y1="136" x2="194" y2="136" gradientUnits="userSpaceOnUse">
<stop/>
<stop offset="1" stop-opacity="0"/>
</linearGradient>
</defs>
</svg>
