<svg width="48" height="48" viewBox="0 0 48 48" fill="none" xmlns="http://www.w3.org/2000/svg">
<rect width="48" height="48" rx="24" fill="#020202"/>
<path d="M23.8397 25.7238H21.9365L20.2036 32.9899H22.1368C26.3038 32.9899 27.1151 31.6477 27.4958 29.266C27.8464 27.0256 26.8447 25.7238 23.8397 25.7238ZM25.4724 29.0137C25.3622 29.7403 25.3121 31.3651 22.6277 31.1734L23.5292 27.4798C24.9014 27.5201 25.6827 27.611 25.4724 29.0137Z" fill="white"/>
<path d="M11.6694 25.7238H9.81636C8.13356 27.8633 6.99165 30.4972 6 32.9899H7.83306C8.00334 32.5156 8.19366 32.0412 8.39399 31.5568H10.5576C10.5676 31.9504 10.5576 32.5963 10.5175 32.9899H12.3406C12.611 30.4165 12.3306 27.8935 11.6694 25.7238ZM9.04508 30.1238C9.41569 29.377 9.80634 28.6706 10.2471 28.0449C10.4274 28.6908 10.5376 29.377 10.5776 30.1238H9.04508Z" fill="white"/>
<path d="M37.2521 28.9532C37.4825 29.3569 38.1236 29.8816 38.4341 30.2449C38.995 30.7798 38.8247 31.2945 38.374 31.3046H35.98L35.5894 33H38.2939C39.7663 33 41.389 31.8495 40.8081 30.1541C40.6378 29.6495 39.8465 28.9027 39.5059 28.5192C38.9449 27.9844 39.1553 27.4697 39.6061 27.4697H41.6394L42 25.744H39.6561C38.0434 25.7238 36.1503 26.9651 37.2521 28.9532Z" fill="white"/>
<path d="M36.7513 26.1679C36.7212 25.6734 36.3907 25.2697 35.9299 25.2697C35.4591 25.2697 35.0885 25.6734 35.0885 26.1679C35.0885 26.6624 35.4691 27.066 35.9299 27.066C35.9499 27.066 35.8498 27.389 35.6394 27.5504C36.0802 27.5908 36.7913 26.8138 36.7513 26.1679Z" fill="white"/>
<path d="M34.3873 25.7137H32.5543V25.7238H32.4942C32.4541 26.1275 32.3139 27.6917 31.5125 29.044C31.4324 29.1651 31.3523 29.2761 31.2721 29.3871C30.5309 28.3881 30.2705 27.1266 30.5309 25.7743C30.5409 25.7541 30.5409 25.7339 30.5409 25.7238L28.5376 25.7137C28.5376 25.7339 28.5276 25.7541 28.5276 25.7743C28.1569 27.6615 28.5476 29.4174 29.6194 30.7899C29.5392 30.8303 29.4892 30.8504 29.4892 30.8504C28.9683 31.0523 28.3673 31.1734 27.6461 31.1532L27.1553 32.9697C27.2154 32.9697 27.2755 32.9697 27.3356 32.9596C27.3556 32.9596 27.3756 32.9596 27.3957 32.9596C28.3372 32.9596 29.2488 32.8385 30.0701 32.566C30.4808 32.4248 30.8615 32.2532 31.2321 32.0413C31.2521 32.0312 31.6327 31.8092 31.8531 31.6174C31.8832 31.5871 31.9933 31.4963 32.0234 31.4761C33.3155 30.3559 34.197 28.5394 34.3773 25.744C34.3773 25.744 34.3773 25.744 34.3773 25.7339C34.3873 25.7238 34.3873 25.7137 34.3873 25.7137Z" fill="white"/>
<path d="M19.1419 25.7238L18.6811 27.7119C18.1602 26.9147 17.4891 26.2385 16.6878 25.7238H14.6343L12.9515 32.9899H15.045L16.1769 27.944C17.0984 28.7312 17.6995 29.8211 17.8798 31.0826C17.8798 31.0926 17.8798 31.1027 17.8798 31.1128L17.449 32.9798H19.5425L21.1752 25.7137L19.1419 25.7238Z" fill="white"/>
<path fill-rule="evenodd" clip-rule="evenodd" d="M36.1303 22.111C38.7446 20.7082 39.9366 17.8725 39.4959 16.389C38.7747 17.6908 37.2421 18.9523 35.7897 19.7495C30.4308 22.666 21.1754 20.3147 17.8899 22.4137C17.1687 22.8679 16.7279 23.6147 16.4875 24.5734C16.9183 23.9477 17.8598 23.4431 19.8532 23.2615C21.9166 23.0697 32.6745 24.2908 36.1303 22.111Z" fill="#FFDD00"/>
<path fill-rule="evenodd" clip-rule="evenodd" d="M35.5091 17.7312C39.3155 14.4615 37.252 11.444 35.5091 11C37.1419 14.3202 33.025 16.4899 29.7996 17.0651C26.2337 17.7009 20.434 17.822 18.01 18.6899C14.5442 19.9312 14.0634 22.4642 14.8948 24.2505C15.8063 17.822 30.7412 21.8385 35.5091 17.7312Z" fill="#FFDD00"/>
<rect x="0.5" y="0.5" width="47" height="47" rx="23.5" stroke="white" stroke-opacity="0.12"/>
</svg>
