<svg width="20" height="20" viewBox="0 0 20 20" fill="none" xmlns="http://www.w3.org/2000/svg">
<path d="M14 5.23572V3.98992C14 2.33863 12.6569 1 11 1H4C2.34315 1 1 2.33863 1 3.98992V8.97311M14 13.3297V14.5755C14 16.2268 12.6569 17.5654 11 17.5654H9M13 9.5H19M19 9.5L16.5 11.9916M19 9.5L16.5 7.00838M3.27239 18.1316L6.51493 18.9395C7.77722 19.254 9 18.3025 9 17.0057V4.54958C9 3.63493 8.37541 2.83765 7.48507 2.61582L4.72761 1.92877C2.83417 1.457 1 2.88426 1 4.82942V15.2309C1 16.6029 1.93689 17.7988 3.27239 18.1316Z" stroke="#F23636" strokeWidth="1.5" strokeLinecap="round" strokeLinejoin="round"/>
</svg>
