<svg xmlns="http://www.w3.org/2000/svg" width="1428" height="1364" viewBox="1056.5 -229.5 1428 1364"><linearGradient id="a" gradientUnits="userSpaceOnUse" x1="1736.354" y1="774.623" x2="1736.354" y2="145.384"><stop offset="0" stop-color="#22a0ff"/><stop offset=".575" stop-color="#5b55ff"/><stop offset="1" stop-color="#a637a8"/></linearGradient><path fill="url(#a)" d="M2038.377 351.562c-14.695-12.695-35.671-28.999-62.334-48.459v-63.095c0-9.058-7.343-16.401-16.401-16.401h-97.898c-61.691-41.461-114.568-75.295-115.106-75.639a16.401 16.401 0 0 0-17.611-.038c-.545.345-53.945 34.192-116.199 75.677h-99.76c-9.058 0-16.4 7.343-16.4 16.401v63.684c-25.725 18.617-46.135 34.308-60.707 46.679-24.264 20.597-32.863 31.874-32.863 43.092v310.244c0 39.104 31.812 70.916 70.915 70.916h524.688c39.103 0 70.915-31.812 70.915-70.916V393.463c-.003-11.014-8.178-21.979-31.239-41.901zm-1.567 352.145a37.88 37.88 0 0 1-5.993 20.478L1917.152 541.7l119.657-123.823v285.83zm-12.154-320.457l-48.613 50.305v-89.64c24.916 18.738 39.769 31.191 48.613 39.335zM1737.76 181.258a6993.906 6993.906 0 0 1 64.83 42.349h-130.254a6893.962 6893.962 0 0 1 65.424-42.349zm-208.291 75.151h88.273l.068.002.056-.002h325.374v204.173c0 2.046.392 3.997 1.076 5.804l-54.812 56.72h-302.61l-.012.001-57.677-59.685c.161-.924.263-1.87.263-2.84V256.409zm-85.619 470.557c-4.978-6.44-7.95-14.507-7.95-23.259V414.071l123.335 127.63-115.385 185.265zm52.816-297.217l-46.576-48.197c9.035-8.079 23.482-19.947 46.576-37.169v85.366zm-22.655 312.069c-.253 0-.502-.014-.754-.019l115.774-185.892h298.325l115.645 185.661c-1.414.16-2.849.249-4.303.249h-524.687z"/><linearGradient id="b" gradientUnits="userSpaceOnUse" x1="1736.354" y1="346.7" x2="1736.354" y2="313.897"><stop offset="0" stop-color="#714ce6"/><stop offset="1" stop-color="#8b42c9"/></linearGradient><path fill="url(#b)" d="M1597.832 346.7h277.043c9.06 0 16.403-7.343 16.403-16.402 0-9.058-7.344-16.402-16.403-16.402h-277.043c-9.059 0-16.401 7.344-16.401 16.402 0 9.059 7.342 16.402 16.401 16.402z"/><linearGradient id="c" gradientUnits="userSpaceOnUse" x1="1736.354" y1="440.71" x2="1736.354" y2="407.906"><stop offset="0" stop-color="#5b55ff"/><stop offset="1" stop-color="#5b55ff"/></linearGradient><path fill="url(#c)" d="M1597.832 440.71h277.043c9.06 0 16.403-7.344 16.403-16.402s-7.344-16.402-16.403-16.402h-277.043c-9.059 0-16.401 7.344-16.401 16.402s7.342 16.402 16.401 16.402z"/><linearGradient id="d" gradientUnits="userSpaceOnUse" x1="1744.5" y1="1105" x2="1744.5" y2="-181"><stop offset="0" stop-color="#0cf"/><stop offset=".483" stop-color="#5b55ff"/><stop offset="1" stop-color="#b92f93"/></linearGradient><path fill-rule="evenodd" clip-rule="evenodd" fill="url(#d)" d="M2313.095 161.487l-32.222 20.434c44.483 84.166 69.673 180.104 69.673 281.927 0 333.691-270.507 604.197-604.198 604.197-333.689 0-604.198-270.506-604.198-604.197 0-333.689 270.509-604.199 604.198-604.199 95.587 0 185.984 22.206 266.329 61.726l17.735-35.47C1944.291-156.918 1847.208-181 1744.5-181c-355.119 0-643 287.88-643 643 0 355.119 287.881 643 643 643s643-287.881 643-643c0-108.556-26.906-210.826-74.405-300.513z"/><g><linearGradient id="e" gradientUnits="userSpaceOnUse" x1="2193.291" y1="221.436" x2="2193.291" y2="-207.005"><stop offset="0" stop-color="#7949dc"/><stop offset="1" stop-color="#b92f93"/></linearGradient><path fill="url(#e)" d="M2193.418-207.005c-118.229 0-214.092 95.872-214.092 214.221 0 39.427 10.644 76.355 29.2 108.077-4.224 35.073-32.39 94.581-29.2 97.428 3.408 3.425 73.396-20.921 105.764-20.689 31.78 18.688 68.804 29.405 108.328 29.405 118.228 0 214.09-95.872 214.09-214.221 0-118.35-95.862-214.221-214.09-214.221zm-1.98 398.895c-33.754 0-87.085-20.258-114.223-36.206-25.611 5.98-48.405 12.633-56.048 14.149 4.695-13.239 8.039-30.067 18.667-56.667-15.847-27.075-31.225-70.456-31.225-104.105 0-101.004 81.864-182.827 182.828-182.827 100.967 0 182.831 81.822 182.831 182.827.001 101.007-81.864 182.829-182.83 182.829z"/></g><linearGradient id="f" gradientUnits="userSpaceOnUse" x1="2199.004" y1="90.095" x2="2199.004" y2="-78.811"><stop offset="0" stop-color="#724ce4"/><stop offset="1" stop-color="#b92f93"/></linearGradient><path fill="url(#f)" d="M2159.309 90.095h80.354V63.069h-23.407v-141.88h-57.91v28.955h26.299V63.069h-25.336v27.026z"/></svg>