<svg width="221" height="221" viewBox="0 0 221 221" fill="none" xmlns="http://www.w3.org/2000/svg">
<g id="Image">
<path d="M0.5 100.5C0.5 45.2715 45.2715 0.5 100.5 0.5H120.5C175.728 0.5 220.5 45.2715 220.5 100.5V220.5H0.5V100.5Z" fill="#F9F9F9"/>
<path id="Mark" d="M110.45 55.259C109.554 55.259 108.847 54.9451 108.33 54.3172C107.812 53.6893 107.554 52.8583 107.554 51.8241C107.554 50.8269 107.657 49.9035 107.864 49.054C108.106 48.1676 108.468 47.2996 108.95 46.4501C109.467 45.5637 110.14 44.6773 110.967 43.7909C111.519 43.163 111.95 42.609 112.26 42.1288C112.605 41.6487 112.846 41.2054 112.984 40.7992C113.122 40.356 113.191 39.9127 113.191 39.4695C113.191 38.62 112.898 37.9737 112.312 37.5305C111.726 37.0873 110.881 36.8657 109.778 36.8657C108.674 36.8657 107.64 36.9949 106.675 37.2535C105.709 37.512 104.778 37.8998 103.882 38.4169C102.848 39.0078 101.934 39.211 101.141 39.0263C100.348 38.8047 99.7274 38.3615 99.2792 37.6967C98.831 37.0319 98.5724 36.2562 98.5034 35.3698C98.469 34.4834 98.6931 33.6154 99.1758 32.7659C99.6929 31.9164 100.486 31.2147 101.555 30.6607C102.968 29.922 104.468 29.3864 106.054 29.054C107.64 28.6847 109.123 28.5 110.502 28.5C112.881 28.5 114.967 28.9063 116.759 29.7188C118.587 30.5314 120 31.6764 121 33.1537C122 34.5942 122.5 36.2932 122.5 38.2507C122.5 39.3587 122.345 40.4114 122.035 41.4086C121.724 42.4058 121.224 43.3846 120.535 44.3449C119.845 45.2682 118.88 46.2101 117.639 47.1704C116.57 48.0199 115.742 48.777 115.156 49.4418C114.57 50.0697 114.139 50.6791 113.863 51.2701C113.622 51.861 113.432 52.5074 113.294 53.2091C113.157 53.8001 112.863 54.2987 112.415 54.705C111.967 55.0743 111.312 55.259 110.45 55.259ZM110.295 68.5C108.709 68.5 107.45 68.0014 106.52 67.0042C105.623 66.0069 105.175 64.6958 105.175 63.0706C105.175 61.4825 105.623 60.2082 106.52 59.2479C107.45 58.2507 108.709 57.7521 110.295 57.7521C111.881 57.7521 113.122 58.2507 114.018 59.2479C114.915 60.2082 115.363 61.4825 115.363 63.0706C115.363 64.6958 114.915 66.0069 114.018 67.0042C113.122 68.0014 111.881 68.5 110.295 68.5Z" fill="url(#paint0_linear_602_4418)"/>
<g id="Plate">
<g id="Rectangle 35">
<rect x="59.75" y="85.75" width="101.5" height="101.5" rx="50.75" fill="#F2F2F2"/>
<rect x="59.75" y="85.75" width="101.5" height="101.5" rx="50.75" fill="url(#paint1_linear_602_4418)" fillOpacity="0.05"/>
</g>
<g id="Ellipse 3">
<circle cx="110.5" cy="136.5" r="28" fill="#F2F2F2"/>
<circle cx="110.5" cy="136.5" r="28" fill="url(#paint2_linear_602_4418)" fillOpacity="0.05"/>
<circle cx="110.5" cy="136.5" r="28" fill="url(#paint3_linear_602_4418)" fillOpacity="0.05"/>
<circle cx="110.5" cy="136.5" r="31" stroke="black" stroke-opacity="0.05" strokeWidth="6"/>
</g>
<g id="Rectangle 36">
<path d="M26.5 83.3C26.5 81.7536 27.7536 80.5 29.3 80.5C30.8464 80.5 32.1 81.7536 32.1 83.3V100.1C32.1 101.646 33.3536 102.9 34.9 102.9C36.4464 102.9 37.7 101.646 37.7 100.1V83.3C37.7 81.7536 38.9536 80.5 40.5 80.5C42.0464 80.5 43.3 81.7536 43.3 83.3V100.1C43.3 101.646 44.5536 102.9 46.1 102.9C47.6464 102.9 48.9 101.646 48.9 100.1V83.3C48.9 81.7536 50.1536 80.5 51.7 80.5C53.2464 80.5 54.5 81.7536 54.5 83.3V104.509C54.5 110.874 51.9714 116.979 47.4706 121.479L46.1 122.85L48.5626 184.107C48.7467 188.687 45.0836 192.5 40.5 192.5C35.9164 192.5 32.2533 188.687 32.4374 184.107L34.9 122.85L33.5294 121.479C29.0286 116.979 26.5 110.874 26.5 104.509V83.3Z" fill="#F2F2F2"/>
<path d="M26.5 83.3C26.5 81.7536 27.7536 80.5 29.3 80.5C30.8464 80.5 32.1 81.7536 32.1 83.3V100.1C32.1 101.646 33.3536 102.9 34.9 102.9C36.4464 102.9 37.7 101.646 37.7 100.1V83.3C37.7 81.7536 38.9536 80.5 40.5 80.5C42.0464 80.5 43.3 81.7536 43.3 83.3V100.1C43.3 101.646 44.5536 102.9 46.1 102.9C47.6464 102.9 48.9 101.646 48.9 100.1V83.3C48.9 81.7536 50.1536 80.5 51.7 80.5C53.2464 80.5 54.5 81.7536 54.5 83.3V104.509C54.5 110.874 51.9714 116.979 47.4706 121.479L46.1 122.85L48.5626 184.107C48.7467 188.687 45.0836 192.5 40.5 192.5C35.9164 192.5 32.2533 188.687 32.4374 184.107L34.9 122.85L33.5294 121.479C29.0286 116.979 26.5 110.874 26.5 104.509V83.3Z" fill="url(#paint4_linear_602_4418)" fillOpacity="0.05"/>
<path d="M26.5 83.3C26.5 81.7536 27.7536 80.5 29.3 80.5C30.8464 80.5 32.1 81.7536 32.1 83.3V100.1C32.1 101.646 33.3536 102.9 34.9 102.9C36.4464 102.9 37.7 101.646 37.7 100.1V83.3C37.7 81.7536 38.9536 80.5 40.5 80.5C42.0464 80.5 43.3 81.7536 43.3 83.3V100.1C43.3 101.646 44.5536 102.9 46.1 102.9C47.6464 102.9 48.9 101.646 48.9 100.1V83.3C48.9 81.7536 50.1536 80.5 51.7 80.5C53.2464 80.5 54.5 81.7536 54.5 83.3V104.509C54.5 110.874 51.9714 116.979 47.4706 121.479L46.1 122.85L48.5626 184.107C48.7467 188.687 45.0836 192.5 40.5 192.5C35.9164 192.5 32.2533 188.687 32.4374 184.107L34.9 122.85L33.5294 121.479C29.0286 116.979 26.5 110.874 26.5 104.509V83.3Z" fill="url(#paint5_linear_602_4418)" fillOpacity="0.05"/>
</g>
<g id="Rectangle 37">
<path d="M186.274 192.5C181.634 192.5 177.961 188.574 178.27 183.944L180.5 150.5H172.1L176.69 93.122C177.26 85.9939 183.211 80.5 190.362 80.5C191.106 80.5 191.714 81.0934 191.733 81.8373L194.294 184.277C194.407 188.785 190.783 192.5 186.274 192.5Z" fill="#F2F2F2"/>
<path d="M186.274 192.5C181.634 192.5 177.961 188.574 178.27 183.944L180.5 150.5H172.1L176.69 93.122C177.26 85.9939 183.211 80.5 190.362 80.5C191.106 80.5 191.714 81.0934 191.733 81.8373L194.294 184.277C194.407 188.785 190.783 192.5 186.274 192.5Z" fill="url(#paint6_linear_602_4418)" fillOpacity="0.05"/>
<path d="M186.274 192.5C181.634 192.5 177.961 188.574 178.27 183.944L180.5 150.5H172.1L176.69 93.122C177.26 85.9939 183.211 80.5 190.362 80.5C191.106 80.5 191.714 81.0934 191.733 81.8373L194.294 184.277C194.407 188.785 190.783 192.5 186.274 192.5Z" fill="url(#paint7_linear_602_4418)" fillOpacity="0.05"/>
</g>
</g>
</g>
<defs>
<linearGradient id="paint0_linear_602_4418" x1="110.5" y1="28.5" x2="110.5" y2="68.5" gradientUnits="userSpaceOnUse">
<stop stop-color="#FE9800"/>
<stop offset="1" stop-color="#E88D04"/>
</linearGradient>
<linearGradient id="paint1_linear_602_4418" x1="111.046" y1="187.25" x2="111.046" y2="85.75" gradientUnits="userSpaceOnUse">
<stop stop-color="#FE9800"/>
<stop offset="1" stop-color="#FE9800" stop-opacity="0"/>
</linearGradient>
<linearGradient id="paint2_linear_602_4418" x1="110.801" y1="164.5" x2="110.801" y2="108.5" gradientUnits="userSpaceOnUse">
<stop stop-color="#FE9800"/>
<stop offset="1" stop-color="#FE9800" stop-opacity="0"/>
</linearGradient>
<linearGradient id="paint3_linear_602_4418" x1="82.5" y1="136.5" x2="138.5" y2="136.5" gradientUnits="userSpaceOnUse">
<stop/>
<stop offset="1" stop-opacity="0"/>
</linearGradient>
<linearGradient id="paint4_linear_602_4418" x1="40.6505" y1="192.5" x2="40.6505" y2="80.5" gradientUnits="userSpaceOnUse">
<stop stop-color="#FE9800"/>
<stop offset="1" stop-color="#FE9800" stop-opacity="0"/>
</linearGradient>
<linearGradient id="paint5_linear_602_4418" x1="26.5" y1="136.5" x2="54.5" y2="136.5" gradientUnits="userSpaceOnUse">
<stop/>
<stop offset="1" stop-opacity="0"/>
</linearGradient>
<linearGradient id="paint6_linear_602_4418" x1="183.42" y1="192.5" x2="183.42" y2="80.5" gradientUnits="userSpaceOnUse">
<stop stop-color="#FE9800"/>
<stop offset="1" stop-color="#FE9800" stop-opacity="0"/>
</linearGradient>
<linearGradient id="paint7_linear_602_4418" x1="172.1" y1="136.5" x2="194.5" y2="136.5" gradientUnits="userSpaceOnUse">
<stop/>
<stop offset="1" stop-opacity="0"/>
</linearGradient>
</defs>
</svg>
