<svg width="16" height="16" viewBox="0 0 16 16" fill="none" xmlns="http://www.w3.org/2000/svg">
<g id="Icon" opacity="0.35">
<path id="Icon_2" d="M9.7998 1.75605C10.0813 1.65497 10.3842 1.59998 10.6998 1.59998C12.191 1.59998 13.3998 2.82799 13.3998 4.34283C13.3998 5.85767 12.191 7.08569 10.6998 7.08569C10.3842 7.08569 10.0813 7.03069 9.7998 6.92962M6.1998 14.4H13.6998C14.5282 14.4 15.1998 13.7177 15.1998 12.8762C15.1998 11.193 13.8567 9.82855 12.1998 9.82855H11.5998M7.9998 4.34283C7.9998 5.85767 6.79097 7.08569 5.2998 7.08569C3.80864 7.08569 2.5998 5.85767 2.5998 4.34283C2.5998 2.82799 3.80864 1.59998 5.2998 1.59998C6.79097 1.59998 7.9998 2.82799 7.9998 4.34283ZM2.2998 14.4H8.2998C9.12823 14.4 9.7998 13.7177 9.7998 12.8762C9.7998 11.193 8.45666 9.82855 6.7998 9.82855H3.7998C2.14295 9.82855 0.799805 11.193 0.799805 12.8762C0.799805 13.7177 1.47138 14.4 2.2998 14.4Z" stroke="#020202" strokeWidth="1.5" strokeLinecap="round"/>
</g>
</svg>
