<svg width="32" height="32" viewBox="0 0 32 32" fill="none" xmlns="http://www.w3.org/2000/svg">
<g id="Icon">
<path id="Icon_2" d="M18.5714 22L19.1018 22.5303L19.3214 22.3107V22H18.5714ZM24 14.75C24.4142 14.75 24.75 14.4142 24.75 14C24.75 13.5858 24.4142 13.25 24 13.25V14.75ZM24 18.75C24.4142 18.75 24.75 18.4142 24.75 18C24.75 17.5858 24.4142 17.25 24 17.25V18.75ZM12.8982 26.6125C12.6053 26.9054 12.6053 27.3803 12.8982 27.6732C13.1911 27.9661 13.666 27.9661 13.9589 27.6732L12.8982 26.6125ZM15.1429 16.3214C15.5571 16.3214 15.8929 15.9856 15.8929 15.5714C15.8929 15.1572 15.5571 14.8214 15.1429 14.8214V16.3214ZM7.42857 14.8214C7.01436 14.8214 6.67857 15.1572 6.67857 15.5714C6.67857 15.9856 7.01436 16.3214 7.42857 16.3214V14.8214ZM11.41 9.92178C11.1301 9.61644 10.6557 9.59581 10.3503 9.87571C10.045 10.1556 10.0244 10.63 10.3043 10.9354L11.41 9.92178ZM12.2672 10.9354C12.547 10.63 12.5264 10.1556 12.2211 9.87571C11.9157 9.59581 11.4413 9.61644 11.1614 9.92178L12.2672 10.9354ZM27.25 11.7143V26.2857H28.75V11.7143H27.25ZM4.75 20.2857V5.71429H3.25V20.2857H4.75ZM5.71429 4.75H16.8571V3.25H5.71429V4.75ZM26.2857 27.25H14.2857V28.75H26.2857V27.25ZM11.8214 22V26.2857H13.3214V22H11.8214ZM17.8214 5.71429V10H19.3214V5.71429H17.8214ZM5.71429 22.75H12.5714V21.25H5.71429V22.75ZM26.2857 9.25H18.5714V10.75H26.2857V9.25ZM18.5714 21.25H12.5714V22.75H18.5714V21.25ZM19.3214 14V10H17.8214V14H19.3214ZM18.5714 14.75H24V13.25H18.5714V14.75ZM19.3214 22V18H17.8214V22H19.3214ZM19.3214 18V14H17.8214V18H19.3214ZM18.5714 18.75H24V17.25H18.5714V18.75ZM13.9589 27.6732L19.1018 22.5303L18.0411 21.4697L12.8982 26.6125L13.9589 27.6732ZM14.2857 27.25C13.7532 27.25 13.3214 26.8183 13.3214 26.2857H11.8214C11.8214 27.6467 12.9247 28.75 14.2857 28.75V27.25ZM16.8571 4.75C17.3897 4.75 17.8214 5.18172 17.8214 5.71429H19.3214C19.3214 4.3533 18.2181 3.25 16.8571 3.25V4.75ZM3.25 20.2857C3.25 21.6467 4.3533 22.75 5.71429 22.75V21.25C5.18173 21.25 4.75 20.8183 4.75 20.2857H3.25ZM27.25 26.2857C27.25 26.8183 26.8183 27.25 26.2857 27.25V28.75C27.6467 28.75 28.75 27.6467 28.75 26.2857H27.25ZM28.75 11.7143C28.75 10.3533 27.6467 9.25 26.2857 9.25V10.75C26.8183 10.75 27.25 11.1817 27.25 11.7143H28.75ZM4.75 5.71429C4.75 5.18173 5.18173 4.75 5.71429 4.75V3.25C4.3533 3.25 3.25 4.3533 3.25 5.71429H4.75ZM9.03571 15.5714C9.03571 14.0167 10.1286 12.9212 11.2857 12.9212V11.4212C9.12914 11.4212 7.53571 13.3703 7.53571 15.5714H9.03571ZM11.2857 12.9212C12.4428 12.9212 13.5357 14.0167 13.5357 15.5714H15.0357C15.0357 13.3703 13.4423 11.4212 11.2857 11.4212V12.9212ZM14.2857 16.3214H15.1429V14.8214H14.2857V16.3214ZM8.28571 14.8214H7.42857V16.3214H8.28571V14.8214ZM8.28571 16.3214H14.2857V14.8214H8.28571V16.3214ZM12.0357 12.1712V10.8961H10.5357V12.1712H12.0357ZM11.8386 10.3893L11.41 9.92178L10.3043 10.9354L10.7328 11.4029L11.8386 10.3893ZM11.8386 11.4029L12.2672 10.9354L11.1614 9.92178L10.7328 10.3893L11.8386 11.4029Z" fill="white"/>
</g>
</svg>
