<svg width="20" height="20" viewBox="0 0 20 20" fill="none" xmlns="http://www.w3.org/2000/svg">
<g id="Table">
<path id="Icon" d="M3.60566 7.19544L2.37173 5.96151C1.87609 5.46586 1.87609 4.66226 2.37173 4.16662L4.16662 2.37173C4.66226 1.87609 5.46586 1.87609 5.96151 2.37173L7.19544 3.60566M3.60566 7.19544C3.94471 6.42189 4.43084 5.69728 5.06406 5.06406C5.69728 4.43084 6.42189 3.94471 7.19544 3.60566M3.60566 7.19544C2.82415 8.97848 2.82415 11.0215 3.60566 12.8046M7.19544 3.60566C8.97848 2.82415 11.0215 2.82415 12.8046 3.60566M12.8046 3.60566C13.5781 3.94471 14.3027 4.43084 14.9359 5.06406C15.5692 5.69728 16.0553 6.42189 16.3943 7.19544M12.8046 3.60566L14.0385 2.37173C14.5341 1.87609 15.3377 1.87609 15.8334 2.37173L17.6283 4.16662C18.1239 4.66226 18.1239 5.46586 17.6283 5.96151L16.3943 7.19544M16.3943 7.19544C17.1758 8.97848 17.1758 11.0215 16.3943 12.8046M3.60566 12.8046C3.94471 13.5781 4.43084 14.3027 5.06406 14.9359C5.69728 15.5692 6.42189 16.0553 7.19544 16.3943M3.60566 12.8046L2.37173 14.0385C1.87609 14.5341 1.87609 15.3377 2.37173 15.8334L4.16662 17.6283C4.66226 18.1239 5.46586 18.1239 5.96151 17.6283L7.19544 16.3943M7.19544 16.3943C8.97848 17.1758 11.0215 17.1758 12.8046 16.3943M12.8046 16.3943C13.5781 16.0553 14.3027 15.5692 14.9359 14.9359C15.5692 14.3027 16.0553 13.5781 16.3943 12.8046M12.8046 16.3943L14.0385 17.6283C14.5341 18.1239 15.3377 18.1239 15.8334 17.6283L17.6283 15.8334C18.1239 15.3377 18.1239 14.5341 17.6283 14.0385L16.3943 12.8046" stroke="#FE9800" strokeWidth="1.5"/>
</g>
</svg>
